<svg xmlns="http://www.w3.org/2000/svg" xmlns:xlink="http://www.w3.org/1999/xlink" viewBox="0 0 373.7 236.8">
  <defs>
    <style>
      .cls-1{isolation:isolate;}.cls-2{opacity:0.2;}.cls-10,.cls-2{mix-blend-mode:multiply;}.cls-3{fill:#9ebfd8;fill-rule:evenodd;}.cls-36,.cls-4,.cls-5,.cls-6,.cls-7{fill:none;stroke-miterlimit:10;}.cls-4,.cls-5,.cls-6,.cls-7{stroke:#fff;}.cls-5{stroke-dasharray:2.98 2.98;}.cls-6{stroke-dasharray:2.98 2.98;}.cls-7{stroke-dasharray:3;}.cls-8{fill:#fff;}.cls-10,.cls-9{fill:#004855;}.cls-10{opacity:0.42;}.cls-11{fill:#ddbc9b;}.cls-12{fill:#11939d;}.cls-13{fill:#e7ccb3;}.cls-14{fill:#a67c52;}.cls-15{fill:#c69c6d;}.cls-16{fill:#ffd71c;}.cls-17{fill:#ffe54e;}.cls-18{fill:#f9be2c;}.cls-19{fill:#b7d02d;}.cls-20{fill:#99b528;}.cls-21{fill:url(#linear-gradient);}.cls-22{fill:url(#linear-gradient-2);}.cls-23{fill:#f1f2f2;}.cls-24{fill:#0e303f;}.cls-25{fill:#636363;}.cls-26{fill:#01c5c5;}.cls-27{fill:#b8de70;}.cls-28{fill:#f29232;}.cls-29{fill:#f1f1f1;}.cls-30{fill:#64bfea;}.cls-31{fill:#fe537a;}.cls-32{fill:url(#linear-gradient-3);}.cls-33{fill:#ecf0f1;}.cls-34{fill:#6d6e71;}.cls-35{fill:url(#linear-gradient-4);}.cls-36{stroke:#f1f1f1;stroke-width:0.05px;}.cls-37{opacity:0.3;mix-blend-mode:screen;}.cls-38{fill:#c7eaf2;}.cls-39{fill:#ddecf6;}.cls-40{fill:#bcdae5;}.cls-41{fill:#29abe2;}.cls-42{fill:#999;}.cls-43{fill:#e8bfcf;}
    </style>
    <linearGradient id="linear-gradient" x1="289.9" y1="146.5" x2="315.4" y2="146.5" gradientUnits="userSpaceOnUse">
      <stop offset=".5" stop-color="#58595b"/>
      <stop offset=".5" stop-color="#454547"/>
    </linearGradient>
    <linearGradient id="linear-gradient-2" x1="287" y1="153" x2="318.3" y2="153" xlink:href="#linear-gradient"/>
    <linearGradient id="linear-gradient-3" x1="74.8" y1="105.8" x2="141.9" y2="130.2" xlink:href="#linear-gradient"/>
    <linearGradient id="linear-gradient-4" x1="214" y1="147.5" x2="195.4" y2="147.5" xlink:href="#linear-gradient"/>
  </defs>
  <g class="cls-1">
    <g id="Layer_2" data-name="Layer 2">
      <g id="Objects">
        <g id="Design">
          <g class="cls-2">
            <path class="cls-3" d="M335.8 171.8a18.4 18.4 0 0 0-1.6-2.5 7.3 7.3 0 0 0-1.4-2c-.5-.3-.5-1.4-1.2-2.5a5 5 0 0 0-2-1.6c-.3-.2 0-1-.2-1.7a2.8 2.8 0 0 0-.5-1.3 4.4 4.4 0 0 1-.4-1.6c0-.4-.4-.4-.8-.8s-.5.3-.8 0 0-1 0-1.6-.4-.6-.8-1.3l-.8-1.8c-.6-.8-.5 1-.5 1.8s-.4 2.5-.3 3.5a9.3 9.3 0 0 1-.7 3.5c-.3.6-1-.3-1.4-1s-1.3-1-2-1.6a2.4 2.4 0 0 1-1-2.2c0-.8.5-.8.6-2s-1.6-.6-2.3-.6a9.2 9.2 0 0 0-2.6.4c-.4.2-1.8.7-2 1.4s-.6 1.7-1 1.8-1-.8-1.6-1-1 0-1.4.4a23.7 23.7 0 0 1-2.2 2.3 3.6 3.6 0 0 0-1.6 2 4.6 4.6 0 0 1-1.5 2.3c-.6.6-2.7.5-4.2 1.6s-2.5 1.6-2.8 3a13.2 13.2 0 0 0 .4 5.4c.4 1 1 4 1.3 5.3s-.3 3.4.7 4.2 3-1 3.7-1a25.7 25.7 0 0 0 4.8-1.5 9 9 0 0 1 4.2-1.3c1.5 0 4 0 5 .5s.8 2 2 2.7 1.6-1.5 1.6-1.5a5.3 5.3 0 0 0 .6 1.6 6.4 6.4 0 0 0 1.4 2c.6.6.4 2.4 1.3 3.2a3.5 3.5 0 0 0 3 .7c.5-.2 1-.6 1.3-.2s.8 1.2 1.7 1 .8-1.6.8-1.6a5 5 0 0 0 2-.8c1-.7 0-1 .4-2a29.8 29.8 0 0 1 1.7-4.4c.5-1.4 1-1.6 1.5-3a6.3 6.3 0 0 0 0-3.5 29.3 29.3 0 0 0-.7-3.2zM329.3 192.8a3 3 0 0 1-1.6-.4 12.3 12.3 0 0 0 .2 2.8 3.4 3.4 0 0 0 2 1.5c.8.3 1-.7 1.3-1.8a2.4 2.4 0 0 0-.2-2.4c-.2-.3-1 .2-1.7.2zM357.2 193.2a4 4 0 0 1-1-.6c-.4-.2-1 1.5-1.3 2.2a6.8 6.8 0 0 1-2 2.3 15 15 0 0 1-2.4 1.8c-.8.4-1 1.8-.6 1.7a6 6 0 0 1 2.3.6c1 .5 1.3-.5 1.8-1s1-1.6 1.7-2.6 1.8-1.8 2-2.8 0-1.2-.5-1.4zM360.2 188.8a6.5 6.5 0 0 1-1.5-2c-.2-.5-1-2-1.7-2.2s-.6.8 0 1.5 1.3 1.4 1.2 2 0 2.6-.4 2.8a2.5 2.5 0 0 1 1 1c0 .6-.6 1.4 0 1.7a1 1 0 0 0 1.4-.5 12 12 0 0 1 1-2.2c.4-.5 1-1 1-1.3s-1.6-.4-2-.7zM314.5 141a1.4 1.4 0 0 0 .8 1c.7.2 1.5 0 1.4.2s-1 .3-1 .7a1 1 0 0 0 .5 1c.5 0 1.3 0 1.7.3a28.3 28.3 0 0 1 3 1.8 10.2 10.2 0 0 1 1.2 2.6c0 .6.5.7 1 1.2a3 3 0 0 0 2.3 1.2c.8 0 1.2-1.4 1.6-1.3s1.6 0 2 .3 1.5 2 2.2 2.4 2.2 1.4 2.4.8-1.4-2.7-2-3a4 4 0 0 1-1.2-1.7c0-.3 1-.2.7-.7s-.3-1-1-1.3-1-1.4-1.8-1.8a50.3 50.3 0 0 0-5.2-2.3l-2.2-.7s-1 1.2-1.6 1.4a1.2 1.2 0 0 1-1.5-.7c-.2-.5.4-1-.2-1.6s-3-1-3 .4zM332.2 147a5.7 5.7 0 0 0 2.2.2 3 3 0 0 0 1.8-1.6 1.6 1.6 0 0 0-.3-1.7c-.5-.4-1 0-.8.3s-.2 1.2-.6 1.6-2.6.3-2.6.3c-.4.2 0 .7.2.8zM302.5 146c.5.4 1.2.5 1.2 0s0-1.4 0-2 .6-.6.8 0 0 1 .6 1.3a1.2 1.2 0 0 0 1.4-.3 3 3 0 0 0-.7-1.7l-1-1a3.6 3.6 0 0 0 1-.8c.3-.3 1-.4 1-.6s-.5-.6-1.2-.5l-1.4.2-.3-.5s-.2-1.5.3-1.3 2.2 0 2.6 0a1.6 1.6 0 0 0 1.5-.4c.3-.3 1-1.2.4-1.3s-1 .6-1.7.7a3.5 3.5 0 0 1-2-.3c-.4-.2-2 .5-2 1s0 1.7 0 2a20.2 20.2 0 0 0-.3 2.4c0 1 .3 1.4.2 1.8s-.6.8 0 1.2zM292.3 139.3c0 .6.5 1.6.5 1.6s.4-.3.5 0 0 1.2.4 1.5 1.2.2 1.5.4a5.2 5.2 0 0 0 1 .5l1.3-.2a1.6 1.6 0 0 0 1.2.4c.7 0 1.2-1 1.5-1.4a18 18 0 0 0 .7-2.2 4.8 4.8 0 0 1 .3-1.2c.2-.4 1-.2.7-.8l-.7-1.3a13 13 0 0 1-.6-1.7c0-.2-.2-1 .2-.8s.7.2.7 0a2.8 2.8 0 0 0 0-.7.7.7 0 0 0 .5-.3c.2-.3.2-.4-.3-1l-1.3-1.3s-1.2 0-1.4.6.3 1.4-.5 1.6-1 .2-1.5 1-.5 1-1 1a2.8 2.8 0 0 0-1.5 1c-.2.2 0 1.3-.5 1s-1-.8-1.4-.4a3.5 3.5 0 0 0-.8 2.5zM300 151a5.3 5.3 0 0 0 2.4 0c.5-.2-.4-.6-.7-.7a15 15 0 0 1-1.7 0c-.4-.2-.7-.7-1-1s-1-.5-1.3-1-1-.6-1-.8-1-.3-1.7-.5-1.6.2-2.4.2-.8-.6-1.5-.7a16.6 16.6 0 0 0-1.8 0c-.8.4-.5 1 0 1.5a6.7 6.7 0 0 0 2 1 17 17 0 0 1 2.3 0c.6 0 3.4.8 4 1a19.5 19.5 0 0 1 2.6 1zM305 151c.5 0 1.4-.2 1.3-.5s-3-.7-3 0a4.8 4.8 0 0 0 1.7.4zM303 152.3c.4.2 1 .6 1.2.2s-1-.8-1-.8c-.7 0-.6.3-.2.6zM289 145.6c.2-.8 1-2 .6-2.5a11.3 11.3 0 0 0-1-1.2c-.3-.6-.4-1.3-1-2s-.8-1-1.2-1.3L285 137s-1-1.5-1.6-2-1.3-1.4-1.7-2a2.4 2.4 0 0 0-1.2-.6c-.8-.4-1.2-1-1.7-.8s-.5 1 0 2 1.6 2 2 2.3 1 .3 1.3 1l.6 1.6 1.3 2a20 20 0 0 0 1.3 2.2c.2.3 0 1.5.7 2a10.4 10.4 0 0 0 1.4.7c.5 0 1.4.8 1.6 0zM309.2 127.7c-.8 0-.7.6-1.4.8a7.4 7.4 0 0 1-1.6 0c-.4 0-1 .3-.8 1 0 0 .3.3 1 .5s.7.2 1 1 .5 1.5 1 1.3.7-.6.8-1.3 1-.6.7-1.4 0-2-.8-2zM307.8 152.6a7.2 7.2 0 0 1 1.8-1.2c.7-.4.8-.7.7-1s-.5 0-1 .2a5 5 0 0 0-1.5.6l-1.6 1.5c-.2 1.3 1.3 0 1.6 0zM303.7 119c0 .3-.7 0-.7 0-.2.4.6 1.4.8 1.8a1.3 1.3 0 0 1 0 1c0 .4-.4 1 0 1.2s.7 1 1 1-.3-1-.5-1.2.3-.8.7-.7a3 3 0 0 1 1.4 1c.4.3 1 .6 1 0s0-1-.4-1.3-.7-.3-1-.4-.7.2-1 0-.3-1-.3-1.6.8-1 1.2-1.7-.4-1.4-.5-2.2-1-.3-1.3 0-.5.6-.5 1zM306 125.5a2 2 0 0 0-.3-1s-.7 0-.8.6-.3 1.5 0 1.3 1-.5 1-.8zM263.4 127.5l-.7 1.7a5 5 0 0 0 .4 2.6c.5.6 1 .2 1.6-.2s.6-1 .2-2.4a3 3 0 0 0-1.4-1.7zM295 114.3c-.2-.4-1 .2-1.8.6a4.3 4.3 0 0 0-1.2.6 5 5 0 0 0 .8 1.2c.3.2.8-.2 1.4-.5s.7-1.5.7-2zM305.4 109.6a3.3 3.3 0 0 0 .2-1.8c0-.5 0-.8-.3-.7a4.7 4.7 0 0 0-1.4 2 8.4 8.4 0 0 0-.2 2s1.4-.8 1.6-1.4zM314.5 96l-1 .7s.7.4.5 1-1 1.5-.2 1.8 1 0 1-.3 1-1.2.5-2a6 6 0 0 0-.8-1.3zM322.2 90.4c-.4.6-1 1.5-1.5 1.5s-1-.5-1-.3a3.7 3.7 0 0 1-.3 1.5c-.4.4-.6.2-1.2.3a5.7 5.7 0 0 0-1.7.7l-1 .8a9 9 0 0 0 1.7 0 2.8 2.8 0 0 1 1.4.3s-.2 1 .4.8a4.4 4.4 0 0 0 1.3-.7 4.6 4.6 0 0 0 1.6-.4c.6-.5 1.5-.8 1.7-1.4a13.5 13.5 0 0 0 .5-2.7 2 2 0 0 1 .4-1.5c.2 0 1-1.7.7-2.2s-.4-1-1-1.2-1 0-1 1.2a6.5 6.5 0 0 1-1 3.2z"/>
            <path class="cls-3" d="M316 96s.2 1.6.5 1.8.3-.6.6-1 1-.4 1-.8-.5-.5-1-.5-1 .6-1 .6zM324.7 82.7l-1 .2s-.4.6-.3 1a3.2 3.2 0 0 0 .4 1l.6-.3s-.4-.7 0-1 .5.3 1.2.4a3.5 3.5 0 0 0 2-.6c.6-.3 1.5 0 1.5-.6s.4-.8-.7-1-1.7-.5-2.2-1.2-.4-1.7-.7-1a2 2 0 0 0-.2 1.5c.2.8.2 1.5-.3 1.7zM331.6 80a6.8 6.8 0 0 0-1 1s1.8-.7 2-1a1.4 1.4 0 0 0-.3-1 3.3 3.3 0 0 1-.7 1zM333.6 78.2c-.3 0-.6 1-.6 1a3 3 0 0 0 1.4-.8c.6-.6-.5-.3-.8-.2zM326 78l1 .7a9.2 9.2 0 0 1-.4-2.3 11.8 11.8 0 0 1 .3-2.2h1l-.6-2.2s0-1.8-.2-2.5a5.4 5.4 0 0 1-.4-1.4s.2-1.2 0-1.2-.8.7-.8 1.2-.4.6-.4 1.6v8.7zM308.4 33.6a3 3 0 0 0 1.6-1c0-.3-1-1.3-2-1.2s-1.7.4-1.3 1c0 .2 1 1.3 1.7 1.2zM327.3 31.7c-.6-.4-1.2-1-1.8-.7a4.8 4.8 0 0 0-1.3 1.5 7.2 7.2 0 0 0 2 .3c1 0 1.7-.7 1-1zM237.2 36.4c.3.6-.3 1.3 0 1.5s2 0 2.4 0a8 8 0 0 0 1.7-.4s-1.7-1-2-1.8a9.8 9.8 0 0 1 .7-3.8 7.2 7.2 0 0 1 3-2.7c1.7-.7 5-1.5 6-2s2-.5 2-1 1-1.4-1-.8a18.7 18.7 0 0 1-5 1.3c-1.3 0-1 .3-3.2 1s-4 1-4.6 2.2-.5 2.4-1.3 3.6-2 1.6-1.4 2.3 2.3 0 2.6.4zM229.7 159c-1 .4-3 1.3-2.3 2.5s-.2 3-1.3 4.6.2 3.4 2.5 5.5 1.2-1.2 2-3.5a45.8 45.8 0 0 0 2.5-7.5 14 14 0 0 0-.2-5s-2 3-3 3.5zM178.3 65a9 9 0 0 1 2 1.7c.5.8-2 .8-2 .8s.7 2.5 1.3 2.5-1.7 2.3-1.7 2.3l3.3-1.3 3-1.2a7 7 0 0 0-.5-2.3c-.4-1-2-2.7-2.7-4.2s.7-3.5.7-3.5l-2 .4s0-2.5-1-2.5-1.6 2.5-1.4 4a15.5 15.5 0 0 0 1 3.3zM176 68.4c1.3-1.3.4-1.7.8-3s-.8-1-.8-1l-1.5.2a4.7 4.7 0 0 0-1 2.6c0 1.2-.6 2-.2 3s1.5-.6 2.7-1.8z"/>
            <path class="cls-3" d="M373.4 47a5.2 5.2 0 0 0-2.4-1.5c-.8 0-1.2-.2-1.4.4s-.8 0-.7-.3.3-.8-.3-1-3-2.3-4.2-3-.7-1.3-1.6-1.6-2 .3-2.3 0-.7-1-1.3-1l-4.7-.2s-.2.4-.2 1 .2 1.8-.5 1.8-1.3-.2-1.4-.4-.3-1.5-.5-1.6a35.8 35.8 0 0 0-4.8.3 3 3 0 0 0-2 1c0 .3-.6-.7-1-1.2s.6-1-.5-1.5c0 0-4-1-4.6-1s-5 .7-5.6.6-.6-1-.5-1.5.2-1.2-.7-1.5-2 1.6-2.6 1.8-.5-.5-.8-1-.8-1.4-1.2-1.4l-3.6-.4s-1.3.5-1 1.2.8 1.7.3 1.5-1-.5-1.5-.2-1 .4-1.7 0a4 4 0 0 0-1.5-.8c-.3 0-1.4.8-1.8 1s-1.4.3-1.4.7 0 1.5-.5 1a15.2 15.2 0 0 0-2.4-2 30 30 0 0 0-3.4-1.7 35.3 35.3 0 0 0-4.7-1 7.2 7.2 0 0 1-2.6-1c-.5 0 .4-.6-.5-1s-2.8-.4-3.4-.2a8 8 0 0 1-1.6.7c-.4 0-2.7 0-3.2.5s-1-.8-1-.8.2-1 .8-1.3 2.4-.6 3.4-1 1.2-.2 1-.8-.2-1.3-.6-2-.8-1.5-1.6-1.7a5 5 0 0 0-2.5.3l-1.5.4a1 1 0 0 0-.8-1c-1-.2-1-1.2-1.4-1s-2.4 0-3 .3a5.2 5.2 0 0 0-1.7 1.5c-.2.5-1.4.4-1.6.7a2.6 2.6 0 0 1-1 1 5.4 5.4 0 0 1-1.5.3s.4-.8.2-1-2.2.4-3.4.4a17.4 17.4 0 0 0-4 1 6.8 6.8 0 0 0-2 1.7c-.4.3 0 .8 0 1.2s-1 .8-1.6.6-.7-1-2-.5-2.3 0-2.5 1-.7 1.7 0 2 1.4-.3 1.6.7-.2 1-.8 1a17.7 17.7 0 0 1-2.2-1c-.8-.4-1.2-.6-2 0l-1.5 1s-.5 1.5-1 1-.7-1.5-1.2-1a1.6 1.6 0 0 0-.4 1.7c0 .6 0 2 .4 2s1 0 1.7 0 1.5.3 2 1a3 3 0 0 1 .2 2c0 .4-.8.8-1 .2s-.8-2.5-1.3-2-1.5.3-1.4 1 0 1.6-.3 2-1.2 0-1.2-.4.5-1.3 0-2.2-.7-2-1-3a4.3 4.3 0 0 1 .3-2.4c.3-.7 1.5-2 .2-2.5s-3.2 0-3.3.5-2.2 2.3-2 3.2a26.2 26.2 0 0 0 1 3c.3 1 .7 1.5.2 2.2s-2-1.7-2.8-2-3.3-1-4.2-.8-.6 1.4-.8 1.7-1.3.4-1.7.2a10.3 10.3 0 0 0-2.8 0c-.4.2-6 .8-7.5 1.8s-1 2.2-2 2.2-.7-1-1.6-1.2-1.5.7-2 1-1 .2-1.3.2-1.5.4-1.6 1 1 1.3 0 1.5-3.7 1.5-4.4 1-.6-2-1-2.4a14.4 14.4 0 0 1-1.8-1.6c-.2-.4.4-1 1.2-.7l3 1s2.8 0 3-1 0-1.6-1-2.4-7-3-8.4-3.4-4.2-1.2-4.7-1-.7 1.3-1 1a3 3 0 0 0-1.7-.6c-.6 0-2 .7-2.3.8s-3.4 1.6-4 2.5-2.6 4.6-3.6 5.3-2.4 3.4-3.6 3.7a6.2 6.2 0 0 0-3.2 2.5 6 6 0 0 0-1 3.6c0 1-.8 2.3.3 2.7s2.6-.6 3.5-.8 1.8 0 2 .3a26 26 0 0 0 1 2.8c.5.4 0 1 .8 1.3a2 2 0 0 0 2.3-.8c1-1 1-2.3 1.3-3.2s1.7-2 1-2.8a6.2 6.2 0 0 1-.8-2 2.5 2.5 0 0 1 .7-2.2c.6-.8 3-2 3.2-2.6s.4-2.2 1.2-2.6 2-1 2.4 0 1 .7-.5 2.6-2.3 1-2 2.8a11 11 0 0 0 1.8 3.7c.3.4 2.5-.2 3.3-.3a11.8 11.8 0 0 1 2.3.3c.5 0 .8-1.4 1.3-1.7a1 1 0 0 1 1.3.4 1.6 1.6 0 0 1 0 1.4c-.2 0-4.6 1.2-5.5 1.6s-2.7.4-3 1 0 2.5-.5 2.8-.8-1.2-1.4-.5-1 3.3-1.5 4-1 1.2-2.6 1.3-4.7 0-5.3 0a5.5 5.5 0 0 1-1.6.2c0-.4-.5-.6-.7-1.3-.3-.8 0-1.2.3-2.2a1.6 1.6 0 0 0 0-1.6c-.2-.5-.5-.5-1 0s-1 .7-1.4 1.2.3 1.8.7 2.8a3.2 3.2 0 0 1 0 1.7 36.4 36.4 0 0 0-5 3c-.7.8-2.6 1.4-3 2.3a2.6 2.6 0 0 1-2 1.7c-.3-.2-.3.3-1 .8s-1.4-.2-2 .3 0 1 1 2 1.5 1.6 1.8 2.7.8 2.8-.4 2.8-4-.5-5.3-.4-1.6 1.4-1.8 2-.3 3.7-.4 4.4-.3 1.5.5 2 2 .6 2.2.8 0 .6 1 .6 1.8.4 2.7-.2a7.6 7.6 0 0 0 2.5-2.3 22.8 22.8 0 0 1 1-2.2 23 23 0 0 1 2.4-2.5c.4-.4 0-1.2.8-1.6a11.7 11.7 0 0 1 2.4-.4c.6-.2 2-1.5 2.3-1.6s2 1 2.2 1.4a15.7 15.7 0 0 0 3 3.6l2 1.6a1.6 1.6 0 0 1 .3 1.5 10.2 10.2 0 0 1-.8 1.5c0 .2 1 .7 1.3.2a7 7 0 0 0 .6-2l-.2-1.5 1 .2c.3 0 .8-1 0-1.4s-2.7-1-3-1.5a22.5 22.5 0 0 1-2-2.7 1.8 1.8 0 0 1 .3-1.7c.2 0 1.3.2 1.7.8s1.7 1.8 2.3 2.3 2 1.3 2 1.6.2 1.8.6 2a12.6 12.6 0 0 1 2 3c.3.8 0 2 .7 1.8a7.4 7.4 0 0 0 2.2-1.3c.2 0-.6-1-1-2s.5-2 1.3-2l2.3.4 1.3-1.6.4-2c0-.6 1-3.3 1.8-3.8a4 4 0 0 1 3-.6c1 .4 3.4-.4 3.6-.4a1.8 1.8 0 0 1 1.2 1.2 13.3 13.3 0 0 0 2.2 3.5c.8 1 2.5 1.2 1.5 2a4.5 4.5 0 0 1-4.3 1c-1-.5-2-1.7-3.5-1s-2.7.4-4 1.4-2.3 1.2-2.5 2.4-.4 2.2.3 3 1.7 1.8 2.2 1.5 1-1.4 1.6-1.2a6.5 6.5 0 0 0 2.8 0 2.4 2.4 0 0 1 1.4.3c.3 0 0 2 .2 2.2A14 14 0 0 1 218 98c-.4.6-2.8 1.2-3.7 1.2a58.5 58.5 0 0 1-8.6-1.8c-1.5-.6-2.5.7-3 1.6s-.2 2.2-1.2 1.6-4.6-3-6-3.2-2-1.7-2-2.7-.7-3-.7-3a22.8 22.8 0 0 0-4 0c-2 .2-6 1.7-7 1.8a19 19 0 0 1-3.8.2c-.8 0-1 .8-1.5 1s-2.3 1.8-2.7 2.2-.4 2-.5 3.2a5.5 5.5 0 0 1-2.3 3.5c-1 .4-3.5 4.3-4.2 6a5 5 0 0 0-.6 3.4c.2 1 .7 4.4.3 5.6s-.8 1.5-.6 2.5a13.3 13.3 0 0 0 1.5 3.7c.7 1 1.3 3.2 2.7 4.7s3 4 4.7 4 2.3-.6 3.4-.5a23 23 0 0 0 5.6-1.5c.6-.4 2.8 0 3.5 0s.5 1.3 1.5 1.7 2.7.2 3.2.7a5.2 5.2 0 0 1 .2 3.6c-.4 1.4-.7 2.4-.3 3s3.2 3.5 3.5 6 1.3 4.3 1.3 5.2 0 3-1 4.8a8.3 8.3 0 0 0-1 4.7c0 .8 1.5 4 2 5.3a24.6 24.6 0 0 1 1.4 5.5c0 1 1 2.5 1.6 4s1.3 3 1.2 3.7-.7 2.2 0 3 2.4 1 4 .6a14.3 14.3 0 0 0 4.5-1.5 24.8 24.8 0 0 0 4.2-4.5 10.5 10.5 0 0 0 1.8-3.6c0-.8-.3-2 .4-2.5s2.2-1 2.3-1.3a17 17 0 0 0-.4-4 6.5 6.5 0 0 1 .2-3 5.4 5.4 0 0 1 1-1.4 20 20 0 0 0 3.5-2.2 11.7 11.7 0 0 0 1-4.7 28.4 28.4 0 0 0-.8-4 12.6 12.6 0 0 1-.3-2 11.7 11.7 0 0 0-.5-1.6c-.2-.2.8-4 3-6.8s4.6-4.5 5-5 1.7-3.5 2.3-4.7 1.7-3 1.6-4.3-1-1.2-1.4-1a10.6 10.6 0 0 1-3 .6c-.7 0-1.3.5-2.2 0s-1.4-2.2-2-2.8a35.4 35.4 0 0 1-2.7-3.7c-.4-.7 0-2.2-1.2-3.6s-.7-2-1.3-3.4a34 34 0 0 0-1.6-4.2 32.4 32.4 0 0 1-1.5-3.2s-.4-1.7.3-1.5 1.6 0 2 1.3 2.3 3.4 2.8 5a17.8 17.8 0 0 0 2.4 4.4 18 18 0 0 1 1.8 5 9 9 0 0 0 1 3c.4.6 3 .3 4.3-.5s3-2.6 4.4-3.4a16.6 16.6 0 0 0 3.8-2.5 14.3 14.3 0 0 0 2-3c.6-1.2 1.6-1.5.8-2.3s-2-1.3-2.6-2.2a5.2 5.2 0 0 0-1-1.4s-1 1.7-2.2 2-2.5-.3-2.5-.6 0-1.5 0-1.6-.8 0-1-.5l-1.8-3.5s0-1.5.3-1.7 1.5-.6 1.8-.2 1 2 1.6 2.7 2 2 3 1.7 2-.6 2.3 0a7.8 7.8 0 0 0 2.7 2c.7.3 5-.3 5.6-.2a2.5 2.5 0 0 1 2 1.2 6.2 6.2 0 0 0 2.5 2c.2 0 0 .2 0 1s-.3 2 .6 2 1.8-2 1.8-2a6.4 6.4 0 0 1 .5 2.4 26.3 26.3 0 0 0 .8 6.4l2.3 6.3s.4 2.5 1.3 2.3a5 5 0 0 0 2.2-2.7 13.6 13.6 0 0 0 .4-3.7c-.2-1.2 0-2.6.4-2.7s3.8-3.5 5-4.3 1-1.5 2-2.3a15 15 0 0 1 3-1.4 1.3 1.3 0 0 1 2 .5 12.8 12.8 0 0 0 1.6 2.3 5 5 0 0 1 1 3.2c-.2 1-1 1.7-.2 1.8s1.5-1 1.7-1.2a1.5 1.5 0 0 1 1.7 1.2l1 5.2s.4 1.8 0 2.7a3.2 3.2 0 0 0 .6 2.7 19 19 0 0 1 1 2.8c.3.7.2 2.3.8 2.6s1.2 1.6 1.6 1.8 1 .2 1 0a4 4 0 0 1-.5-2c0-1.2.3-2-.5-2.4s-2-2.5-2.4-3a6 6 0 0 1-1-2s.7-2.2.8-3v-1.8a2 2 0 0 1 1.3.6l1.8 2 1.2 1.2a4.3 4.3 0 0 1 .3 1.7c0 .3 0 1 .4.5a1.5 1.5 0 0 0 .4-1.2 6 6 0 0 1 0-1 2.5 2.5 0 0 0 1.8.2c.6-.4 2-1.2 2-1.7a8.2 8.2 0 0 0-.2-2.5 10 10 0 0 0-1-3l-1.8-1.8s-1-1.4-.8-2a6 6 0 0 1 1.2-2c.4-.4 1.3-1.3 2-1.4s.8.2 1 .7.2 1.2.4 1.2.3-.8.4-1a9.6 9.6 0 0 1 1.7-1 6.7 6.7 0 0 0 1.4-.8l.6-.8s.2.7.6.5 1.5-.2 1.6-.6a4.5 4.5 0 0 1 .8-1 7 7 0 0 1 1.5-1.4c.8-.3 1-.6 1-1.2a6 6 0 0 1 .8-2.4c.5-1 1-2.3 1.4-2.7s.5-1 0-1.2a9.3 9.3 0 0 1-.7-.6s-.4-1.6 0-1.6 0-1.3-.4-2a3.5 3.5 0 0 1-1-2.2 5 5 0 0 1 1.6-2.3c.3-.4 2.4-.3 1.5-1a2.2 2.2 0 0 0-2.2-.3c-.6.3-1.2 1-1.5.6a8.6 8.6 0 0 1-1-2c0-.2.8-.4 1.2-1s1.7-1.5 2-2 .6-.3 1-.3 0 .8-.2 1.3-.6 1.5 0 1.3l2.3-1s1.4-.4 1.3.3-1 1.3-.6 1.8a5.2 5.2 0 0 0 1.4 1l.6-.3a3 3 0 0 1 .2 1.4 19 19 0 0 1-.2 2.2c-.2.4-.5 1 0 1a5.6 5.6 0 0 0 2-1.2 3 3 0 0 0 .4-2 9.3 9.3 0 0 0-1-3 3.3 3.3 0 0 1-.5-1.4c0-.2 1-1 1.5-1.5s.2-1 .7-1.7a12.7 12.7 0 0 1 1.8-1.6c.3-.4.7 0 1 .2s1 1 1.4.2l3.8-4.6a27.6 27.6 0 0 0 2-3.6 12.4 12.4 0 0 0 .8-3c0-.6.7-1 .3-2.4s-.7-2.4-1.4-2.4-.8 1-1.6.8-1-1.5-1.2-1.7-1.3-.3-1.4-.5 3.6-4 5-5.4 2.2-3 3.6-3a9.4 9.4 0 0 1 4.2 0c.6.3 2-.3 2.5-.4s1.7-.4 2-.2-.8 1.4-.3 1.6a4.5 4.5 0 0 0 2.6-.7c.6-.3-.3-1.3.3-2a10.3 10.3 0 0 1 2.4-2c.7-.2 2.3-.5 2.6-.3s.2 1 .6 1.6 1.6-.8 2-1.2.5-1.2 1-1.6a1.8 1.8 0 0 1 1.7 0c.2 0-.6.3-1 1.4a2.5 2.5 0 0 1-1.5 2 12.4 12.4 0 0 0-2.8 2.6c-.3.5-2 1.5-2.4 2.3s-.3 1.7-.6 2a1.4 1.4 0 0 0-1 1.2 22.2 22.2 0 0 0 .3 4l.3 2.5s0 1.4.6 1.2a2 2 0 0 0 1.3-1.3c0-.5.3-1.3.8-1.5s.6-.8.7-1.4.8-.5 1.4-1 0-1.5.4-2.2 1.5-.5 1.3-1.2 0-1.5 0-2a4.5 4.5 0 0 1-.3-1.8c0-.4 1.3-2.4 1.3-2.4a5 5 0 0 0 1.7-.5c.5-.5 1.3-.3 1.7-.5a3.8 3.8 0 0 1 2 .2c.4.2.5 1.4 1 1s1-1.7 2-2.3a25.7 25.7 0 0 1 4.7-2c.8 0 1.5.5 2 0s0-.6-.5-1.5-.8-2-.4-2 1.8 0 2-.6l.6-2s.5 0 .7.5 1 .5 1.7.4 1.3.7 1.5 1a5.4 5.4 0 0 0 2 1c.7.3 1 0 1-.6s.3-1 .6-1 1.2.2 1.4 0 .7 0 0-.7z"/>
            <path class="cls-3" d="M191.6 85c0 .3.7 0 1-.6s0-1.5 0-1.5c-.5-.3-1.2 1.5-1 2zM191.7 86.4s0 2 .4 2.4.7-.3 1-1a2 2 0 0 0-.3-2c-.3-.5-1 .6-1 .6zM125 74c1 1.3 2.4.6 3.2 1s3.4 2.3 3.2 1.5-1.3-3.3-2.4-3.5a7.7 7.7 0 0 1-2-.8v-1.8s-3.4 2.3-2 3.6zM103.3 109.7c-.8-.6-4-.4-4-.4l5 3s2.8 1 3.8 1-.3-.7-1-1-2.8-2-3.7-2.6zM110.2 113.5s1 2.5 2 2.3 2.2-1.3 1.6-1.7a7 7 0 0 0-3.6-.5zM119 47.3a23 23 0 0 0 2-3.2s-4-.3-5-1-1-2.8-1-3.4a3.8 3.8 0 0 0-1.8-3.4c-1.7-.8-5-1.7-6-2s-.7-2-1.7-2.8-3.6-.6-3.6-.6l-2.4.4-2 3-.5-3.2s-2-.2-2.8 1.3-1.5 2.5-.7 3.3 2.6 2 3.4 1.7 4.5 1.6 4.5 1.6.2-.7 1.7-.7a7.2 7.2 0 0 1 4 1.5c1 .8 2 1 2.4 2.5a6.7 6.7 0 0 1-.2 3.5c-.2 1-4.4 3.4-4.4 3.4s4-1 4.8 0 1.3 2.2 2.8 2.7a35 35 0 0 0 4.7.5c-.8-.3-4.7-3.7-3-3s3.7.5 2.8-.6a21.4 21.4 0 0 0-2.2-2.4l-2-1 3-.2s2.4 3 3.2 2zM117.3 52.5c.2 0 0 0 0 0zM159.5 37c-1-.8-1.2-1.7 0-2s2.3.3 2-1 1-2 1.4-2.6a6.8 6.8 0 0 0 .5-2v-2.6a7 7 0 0 0-.2-1.7c-.2-.5.2-1.3.4-2.2a15.8 15.8 0 0 1 2-3l1.6-2.2A6.2 6.2 0 0 1 169 16a12 12 0 0 0 1.8-1s-2.7-1-4.8 0-4 1.8-5.2 1.4 0-2-.6-2h-4.6s8.3-1.4 6.4-1.8-4.4-1.3-5.8-1.7a19.6 19.6 0 0 0-7.8-1c-3 .5-4.6 1-6.2 1.3s-3.6.5-4.4 1 0 2-.7 2.6-1.5-.4-2.4-1a3.6 3.6 0 0 0-2.3-.4s-1 1.7-1.8 1.5a12.8 12.8 0 0 1-2.4-1l-5.5 1s-1 1.8-2.3 1.6a5.8 5.8 0 0 0-4 1.6c-.4.7 2-.4 2 .7s.3 2.2-1 2a8.3 8.3 0 0 0-4.3.4c-1.8.6-4 1.4-2.6 1.7s6.7.5 6.7.5l-5 2 3 1.3s4.4-.6 5.8-.2a24.7 24.7 0 0 1 6 2.7c1 .8 2 4.4 1.6 5.2s1.6 0 2.5 1.3.5 2 0 2.5-2.6.4-1.8 1.3 3.2.6 2.7 1.4-2.2 1.3-2.2 2.3 1.7 5 2 6a16 16 0 0 0 2.8 4.3l2 1.4a23 23 0 0 0 2.7 1c1.2.4 2-3.5 2.5-4.8s5.2-6 6.4-6.5 4.7-3 4.7-3c1.5-.3 4.8-2 6.5-2.6s1-1 0-2zM169 47.5a1.6 1.6 0 0 0-1.3-2.3c-1-.2-4.4 2-4.4 2l-2-1c-2 .5-2.2 1.3-2 2.2s3 2.3 5 2 4.4-1.5 4.8-3zM62.2 34.5c.8-.4 2 1 3 1.5s2.2.6 3.7 1.2-3.2 1.3-3.2 1.3l2.3 1.3a13.4 13.4 0 0 0 4.4 1.2c1.3 0 4.4-2 4.4-2a13 13 0 0 0 3.2 1c1.7.2 1.7-1.3 1-2.3s-1.7-.6-2.5-1-1.3-3-1.3-3l-1.6-1.8s-1 1-1.5 0-1.2.5-2 1-2 .6-3-1-2.4-1.6-4-2.4a5.8 5.8 0 0 0-4.5-.6c-2 .4-2.5.8-2.7 1.6s.2 3.6 1.5 4.6 2-.3 3-.7zM84 30.4c-1 .2-2.2.2-2.2 1v.8l-1.2.8a6.3 6.3 0 0 0 2.7 2.3c1.5.4 4.4-.6 3.3-1.4a13.7 13.7 0 0 1-2-2.4s.8-1.5-.5-1.3zM91.2 32c-.4-1-3-1-3-1a14.7 14.7 0 0 1 0 3 8.8 8.8 0 0 1-1.5 3 9 9 0 0 0 1.4 1.5c.7.4 2.8-1.3 2.8-1.3l-1.8-2 .6-2s2 0 1.6-1.2zM86.7 39.8c.4-.7-1.7-1-1.7-1s-1.5 1-1 1.2 2.2.4 2.7-.3zM87.8 25.2h-1s.4.2 1 0zM88.7 19.7c1 .4 1.5 2 1.7 2.3s.2 1.3 1.7.6a6.3 6.3 0 0 1 3.4-.2 19 19 0 0 1-2 1 42.8 42.8 0 0 1-5.6 1.8c1 0 2.5.4 2.6 1 .2.8.6 2.8 1.3 3A35.5 35.5 0 0 0 97 29l4-.4s3.8-1.2 2-1.4a67 67 0 0 0-6.8.2 8.4 8.4 0 0 1-2.5-1s1.3-1.3 2.3-1a17.5 17.5 0 0 0 5.6-.3c1.5-.3 2.5 0 2.5-.7s.8-1 1.8-1.7a6.4 6.4 0 0 0 1.7-1.4c-.2-1-.4-2.3.4-2.3a23.6 23.6 0 0 0 2.8-.6l4-2.7a29 29 0 0 1 3.4-1.2c1-.5 2.7-1 2.7-1s-.8-.7-3.7-1.3-6.2 1.3-8 1.3a32 32 0 0 0-6.4.2c-2.2.4-4-1-6.4 0s-3.3 1-3.7 1.6-1.8.5-3 .5-3.8 1.8-3 2.5 1 1 1.7 1.4zM88 27.2s-1.6 1.5-1 1.7l2 .5zM78 25a8.6 8.6 0 0 0 .5 2c.4.8 2 .6 2.7 1.3s2.5.4 3.6-.3-1-2.5-1-2.5l-2 .2zM68.7 28s.6 1.7 1.4 1.3a7.4 7.4 0 0 1 3.7-.8 2 2 0 0 0 2.3-2c0-1.6-2.3-1.6-2.3-1.6L72 26.7l-3.4-1a1.5 1.5 0 0 0-2 1.5c.2 1 2 .8 2 .8zM60 27.2c1.4 1 1.8-.6 2.4-1.4s2 .4 3-.7a3.2 3.2 0 0 0 .8-2.4 44.3 44.3 0 0 0-6 2c-1 .5-1.8 1.6-.3 2.6zM70.6 24.7c1 .4 1.2-.4 2-1.2a1.5 1.5 0 0 0 0-2.3c-.6-.5-3.7 1.4-3.7 1.4s.5 1.7 1.6 2zM77.7 22.2c.8-.2 3 .6 4 1.3s2 .2 2-.7-1.2-1.6-2.3-2.3-3.7-.2-3.7-.2-1 2 0 2z"/>
            <path class="cls-3" d="M88.5 24.3c1.5.2 1.7-1.3 1-1.7l-1.6-1-3.2-.6s2.3 3 3.7 3.3zM128.2 151.4c-1.2-.6-4.8-2.3-6.4-3.3s-3.8.5-3.8.5l-.2-3.2a24.7 24.7 0 0 0-2-5.2c-1.3-2-3.6-1-5.5-.7s-2.3-2-3.2-2.3-1-2-1-2l-3-1-5.2-1.4s-1.3 2.3-2 2-.3-2.2-1-2.2-3.7 3.4-3.7 3.4L91 137l-2-2-3.4.3a12.7 12.7 0 0 0-1.4-2.5c-.8-1 0-1.7.4-3.3s-1.2-1.5-2.5-2a10 10 0 0 0-2.8-.3l.6-2.8s.8-3.7.6-4.3-2.3 0-2.7.7l-1.8 2.5s-3 .8-3.7.2-1-1.7-2-2.7-1-3.4-1-5.4a6 6 0 0 1 .5-4c.4-.7 2.7-2 4-2.5a5.6 5.6 0 0 1 3.3 0l4-1s2.8 1.8 3.4 2.8 1.5 3.8 3 3 0-2-.3-3.2.6-3 .8-5 1.4-1.4 3-3.5.3-2.2.3-3.3.7-1.8 2-2.7a38 38 0 0 0 3-2.5c2.2-1.7 1-2 2.4-4.2a8 8 0 0 1 3-2.6l1 .8a6.6 6.6 0 0 0-.2 2.5c.2 1 1.5-1 2-1.7s2-1.4 2.2-2.5-1.3.4-2 0a12.2 12.2 0 0 1-1-1c.8-1.6-.4-2-1.2-3.4-.8-1.4-3.5 1-3.5 1a25.2 25.2 0 0 1 2.5-2.7c.6-.4 3 0 5.4 0s2.7-2.3 4.6-3 1-1.4.4-2.2-2.7-1.4-3.7-2.3-2.2-1.2-2.4-4.4a3.6 3.6 0 0 0-2.7-3.5s-2.2 2.5-3.7 2-.8-2.2-1.5-3.5-3.3-2-4.8-1.6-3-.2-3.6 1.2.6 3.6 1.7 4.8-.6 4.6-1.2 5.3-.4 4.8-2 5.2-2.2-5-3-5.5-7-3-8.2-4-3.3-2-4-4 4.7-5 5.5-5.5 2.4 0 3.7.4 1.8.3 2.5-.5a3 3 0 0 0 .6-1.7s-4.8 0-4-.2a10 10 0 0 0 2.5-1.7l3.6-3.2s-.6-1.7-1.2-3.2-2.5-.6-2.5-.6L82 51.5s-1.6-.2-2-.8a13.5 13.5 0 0 0-3.6-3c-1.2-.8-2 .5-2.5 1.3s-3.6 1-3.6 1a19 19 0 0 0-3.4.7c-.8.4-4.6-1-6.2-1.2s-.2 3-.6 3.7-2.3-1.2-3.4-1.7-3.5-1-3.5-1-3.2-2-4.6-2.5-6-1-7.6-2.3-3 .2-4 0-2.8 2-3.6 2-3-.3-5.7-.3-7-2-9-3-8.3 1-9.6 1-4.3.7-4.5 2.4S.8 50.3.8 50.3l5.3 2s-1.2 1-1.8 1-2.5-1.6-3.4-1a2.3 2.3 0 0 0-.6 2.8c.4 1 3 1 4.8.5s1.3 1.3 1.5 2-2.7.7-3.6 1-1 2.6 0 4a7.5 7.5 0 0 0 3.7 2.8A14.7 14.7 0 0 1 9 66s-2 3-1.3 3.7S10 68 11 67.2a27.6 27.6 0 0 0 2.6-3l2-3.2-.6 3.3s1 1 2.7-.6 1-2.5 1-2.5 4.2 2.3 5 2a8.4 8.4 0 0 1 5.3 2c1.3 1.2 2.7 4 3.3 4s-.3-1.8.7-1.5 3 3.3 4 5 2.5 5.4 3 6.2 1.2.6 1.8 1.6a14.7 14.7 0 0 1 1.7 4.8 28.4 28.4 0 0 0 .4 8c.7 3.3 1.8 7.4 3.7 9A13.3 13.3 0 0 1 51 107c.4 1 2 5 3 7s2.4 3.6 2.6 2-4.6-9.5-4.6-9.5.8-.8 1.5-.8 2 4.3 2 4.3 5 6.7 5.3 7.5.4 4 1.7 5.7 9.8 3.3 10.4 3 2 2.2 2.6 2.8 4 1.7 5 2.5 1.5 3 2.5 4.4 2 1 3.3 1.2a1.5 1.5 0 0 0 1.6-.7l1.4 2a20 20 0 0 1 0 3.7l-2 4.6s-.5 3-.5 4-.3 3.5 1 5 2.4 5.8 3 7.3 3.4 4.3 4.5 5 1.4 3.2 1.8 5-.4 5.3-.4 6.2l-1 12s-1.5 6-1.5 7.2a26.7 26.7 0 0 1-.7 3.7 2.8 2.8 0 0 1 .2 2.8 26.7 26.7 0 0 0-1.2 5.3c-.2 1.5 0 6 .6 7a15 15 0 0 0 4 4.5c2 1.3 2.5-1.2 2.5-1.2L98 216s.7-2.2 2-4.3.5-2-.5-3 .8-2.2 2.3-4 .4-2.2.8-3 1.5-2 1.5-2.5 2.7-1 4.4-1.7 2-2 1.4-4a20.4 20.4 0 0 1-.7-3.5s2.7 1.4 4.8-.3 2-2.7 3.7-5 .6-3 .8-5 3-2.7 5.6-3.7 2.4-1 4-3.4 1-5.4.7-7 1.5-3.2 2.7-5a9.3 9.3 0 0 0 1.7-6.4c-.4-1.8-3.5-2.2-4.8-2.8zM288.4 21.7a4.8 4.8 0 0 0-2.8-1c-.4-.2-2 2-2 2l3-.5s2.8.5 1.8-.5zM277.5 20.4c.5 0 1 .3 2 .3a10 10 0 0 1 2.3.5l1.7-.8a1.2 1.2 0 0 0-.6-.8c-.6-.2-.6-.7-1-1s-.7-.8-1.6-1.4-.6-.3-1.3 0a6.3 6.3 0 0 0-1.6 1.5c-.6.6-2 0-1.7 1.3s1.4.5 1.8.4zM196.8 22.4l1.2.8a7.6 7.6 0 0 0-1.2 2c0 .5 1.2.6 3 1a1.7 1.7 0 0 0 2-1s.5-1 .8-1a2.4 2.4 0 0 1 1.8.8c.6.6 1.4.5 2.7 0s-1.2-1-1.2-1a6.6 6.6 0 0 1-2.2-1.6 7.3 7.3 0 0 0-2-1.6 12 12 0 0 1-1.4-1.7 6 6 0 0 1-2 .5c-.4 0-1-.8-1.5-.6s-1.2.4-1 1.5a2.4 2.4 0 0 0 1 2zM204 20.5c.7 0 3 .3 4.4.6s2.6-1.5 2.3-2-1.8 0-2 0a8.8 8.8 0 0 1-3.5-1c-1-.8-2.3.3-2.3.3l-.7.8s1 1.5 1.7 1.5z"/>
          </g>
          <path class="cls-4" d="M278.7 59.8l1 1.2"/>
          <path class="cls-5" d="M281.3 63.4a96.2 96.2 0 1 1-140-19"/>
          <path class="cls-4" d="M142.5 43.6l1.2-1M119 118.7v-1.5"/>
          <path class="cls-6" d="M119.3 114.2a83.5 83.5 0 0 1 166.8 1.5"/>
          <path class="cls-4" d="M286 117.2v1.5"/>
          <path class="cls-7" d="M310.8 118.7a108.2 108.2 0 1 1-216.4 0"/>
          <circle class="cls-8" cx="144.8" cy="42.5" r="5.4"/>
          <path class="cls-8" d="M276.5 64.3l-2-9.8 9.6 3.3-7.5 6.5z"/>
          <path class="cls-9" d="M213.4 236.8H200l-15.6-.7v-36h29z"/>
          <path class="cls-10" d="M213.4 236.8H200c-4-.2.4-.7.4-.7v-36h13z"/>
          <path class="cls-11" d="M189.4 196v-8.7l-6-6a6.3 6.3 0 0 1-2-4.5V144h3.5s4.2-1 4.2 3h26.6l8-7.6 1.8-1.8a3 3 0 0 1 3.2 0 4.5 4.5 0 0 1 2 2.3 4 4 0 0 1-1.2 3.4l-6.3 6.2-7 3.3-17.6 18.2 20 8-7.3 7.2v9.6z"/>
          <path class="cls-8" d="M188.4 195h23v5h-23z"/>
          <rect class="cls-12" x="202.4" y="175" width="7" height="3" rx="1" ry="1"/>
          <path class="cls-13" d="M181.4 144.3v8.5c1 0 1-1 1-2v-4.4c0-1.2 0-2-1-2z"/>
          <path class="cls-14" d="M232 97a10 10 0 0 0-10-10 10 10 0 0 0 10-10 10 10 0 0 0 10 10 10 10 0 0 0-10 10z"/>
          <path class="cls-15" d="M222 98a6 6 0 0 0-6-6 6 6 0 0 0 6-6 6 6 0 0 0 6 6 6 6 0 0 0-6 6z"/>
          <circle class="cls-16" cx="233" cy="29.3" r="8.1"/>
          <circle class="cls-17" cx="233" cy="29.3" r="6"/>
          <path class="cls-18" d="M232.6 32.4a5.7 5.7 0 0 1-1.3-.4 4.7 4.7 0 0 1-1.2-.6l1-1.2a4.8 4.8 0 0 0 .8.5 3.7 3.7 0 0 0 1 .3v-1a7 7 0 0 1-1-.4 2.6 2.6 0 0 1-.8-.5 1.5 1.5 0 0 1-.5-.4 1.8 1.8 0 0 1 0-.8 2 2 0 0 1 0-.7 1.7 1.7 0 0 1 .5-.5 2.2 2.2 0 0 1 .7-.4 3.3 3.3 0 0 1 1 0v-.6h1v.5a4.2 4.2 0 0 1 2 .6l-1 1.3a3.3 3.3 0 0 0-.5-.5 3.7 3.7 0 0 0-.6-.2v1a6.4 6.4 0 0 1 1 .4 2.6 2.6 0 0 1 .7.4 1.5 1.5 0 0 1 .4.7 2 2 0 0 1 0 .7 1.8 1.8 0 0 1 0 .8 1.8 1.8 0 0 1-.5.6 2.2 2.2 0 0 1-.7.4 3.5 3.5 0 0 1-.8.2v1h-1zm0-5.2a1 1 0 0 0-.4.2.4.4 0 0 0-.2.3.4.4 0 0 0 .2.3 1.3 1.3 0 0 0 .5.2zm1 3.8c.3 0 .5-.2.5-.5a.4.4 0 0 0 0-.2 1.3 1.3 0 0 0-.5-.3z"/>
          <circle class="cls-16" cx="201" cy="113.3" r="8.1"/>
          <circle class="cls-17" cx="201" cy="113.3" r="6"/>
          <path class="cls-18" d="M200.6 116.3a5.7 5.7 0 0 1-1.3-.3 4.7 4.7 0 0 1-1.2-.6l1-1.2a4.8 4.8 0 0 0 .8.5 3.7 3.7 0 0 0 1 .3v-1.2a7 7 0 0 1-1-.3 2.6 2.6 0 0 1-.8-.4 1.5 1.5 0 0 1-.5-.4 1.8 1.8 0 0 1 0-.8 2 2 0 0 1 0-.7 1.7 1.7 0 0 1 .5-.5 2.2 2.2 0 0 1 .7-.4 3.3 3.3 0 0 1 1 0v-.6h1v.5a4.2 4.2 0 0 1 2 .7l-1 1.2a3.3 3.3 0 0 0-.5-.4 3.7 3.7 0 0 0-.6-.3v1a6.4 6.4 0 0 1 1 .4 2.6 2.6 0 0 1 .7.4 1.5 1.5 0 0 1 .4.7 2 2 0 0 1 0 .7 1.8 1.8 0 0 1 0 .8 1.8 1.8 0 0 1-.5.6 2.2 2.2 0 0 1-.7.4 3.5 3.5 0 0 1-.8.2v1h-1zm0-5a1 1 0 0 0-.4 0 .4.4 0 0 0-.2.4.4.4 0 0 0 .2.3 1.3 1.3 0 0 0 .5.2zm1 3.7c.3 0 .5-.2.5-.5a.4.4 0 0 0 0-.3 1.3 1.3 0 0 0-.5-.2z"/>
          <circle class="cls-16" cx="161.5" cy="25.2" r="8.1"/>
          <circle class="cls-17" cx="161.5" cy="25.2" r="6"/>
          <path class="cls-18" d="M161 28.3a5.7 5.7 0 0 1-1.3-.3 4.7 4.7 0 0 1-1.2-.6l.8-1.2a5 5 0 0 0 1 .5 3.7 3.7 0 0 0 .8.2v-1.2a7 7 0 0 1-1-.3 2.5 2.5 0 0 1-.6-.4 1.5 1.5 0 0 1-.5-.4 1.8 1.8 0 0 1-.2-.8 2 2 0 0 1 .2-.8 1.7 1.7 0 0 1 .4-.6 2.2 2.2 0 0 1 .7-.4 3.3 3.3 0 0 1 1-.2v-.5h1v.6a4.2 4.2 0 0 1 2 .6l-.7 1.2a3.4 3.4 0 0 0-.6-.3 3.7 3.7 0 0 0-.6-.2v1a6.2 6.2 0 0 1 1 .3 2.6 2.6 0 0 1 .8.4 1.5 1.5 0 0 1 .4.6 2 2 0 0 1 0 .8 1.8 1.8 0 0 1 0 .7 1.8 1.8 0 0 1-.5.7 2.2 2.2 0 0 1-.7.4 3.5 3.5 0 0 1-1 .3v1h-1zm0-5a.8.8 0 0 0-.4 0 .4.4 0 0 0-.2.3.4.4 0 0 0 .2.3 1.3 1.3 0 0 0 .5.2zm1 3.7c.4 0 .6-.2.6-.5a.4.4 0 0 0 0-.3 1.3 1.3 0 0 0-.6-.2z"/>
          <path class="cls-19" d="M213.3 18.6c-7.2-7-18.2-.3-25.4-7.2L191 0c7.3 7 18.4.3 25.6 7.2z"/>
          <path class="cls-20" d="M212.3 15.7c-6.6-4.6-15.8-.2-22.5-4.8l2.3-8c6.8 4.5 16 0 22.6 4.7z"/>
          <path class="cls-19" d="M205.4 9.4a4.6 4.6 0 0 1-4.3 3 2.5 2.5 0 0 1-2.4-3.2 4.6 4.6 0 0 1 4.3-3 2.5 2.5 0 0 1 2.4 3.2z"/>
          <path class="cls-20" d="M201.4 11a3 3 0 0 1-.8-.2 2 2 0 0 1-.6-.3l.7-.7a2 2 0 0 0 .4.3 1.8 1.8 0 0 0 .6.2l.2-.6a3.5 3.5 0 0 1-.6-.2 1 1 0 0 1-.3-.2.6.6 0 0 1-.3-.3 1 1 0 0 1 0-.5 1.3 1.3 0 0 1 .3-.5 1.4 1.4 0 0 1 .3-.3 1.8 1.8 0 0 1 .5-.3 2.4 2.4 0 0 1 .6 0V7h.7v.4a2.3 2.3 0 0 1 .6 0 1.8 1.8 0 0 1 .5.4l-.6.7a1.5 1.5 0 0 0-.3-.2 1.8 1.8 0 0 0-.3 0v.5a3.2 3.2 0 0 1 .4 0 1 1 0 0 1 .5.4.6.6 0 0 1 0 .3 1 1 0 0 1 0 .4 1.2 1.2 0 0 1 0 .3 1.4 1.4 0 0 1-.5.4 1.8 1.8 0 0 1-.4.2 2.6 2.6 0 0 1-.6 0v.5h-.7zm.8-3a.7.7 0 0 0-.3.2.3.3 0 0 0-.2.2.6.6 0 0 0 .2.3zm0 2.3c.2 0 .3-.2.4-.3a.2.2 0 0 0 0-.2.6.6 0 0 0-.3 0z"/>
          <path class="cls-19" d="M141.3 67c12.2-.4 15.5-16 27.8-16.5l7.5 12.4c-12.2.5-15.5 16-27.8 16.6z"/>
          <path class="cls-20" d="M144.7 68.7c9.7-2 13.5-14 23.2-16l5 8.7c-9.6 2-13.4 14-23 16z"/>
          <path class="cls-19" d="M156 67.8a5.6 5.6 0 0 1 1-6.4 3 3 0 0 1 5 .5 5.6 5.6 0 0 1-1 6.3 3 3 0 0 1-5-.5z"/>
          <path class="cls-20" d="M158 62.8a3.7 3.7 0 0 1 1-.5 2.5 2.5 0 0 1 .7-.2v1.3a2.6 2.6 0 0 0-.6 0 2.2 2.2 0 0 0-.4.4l.4.7a4.3 4.3 0 0 1 .6-.3 1.4 1.4 0 0 1 .5 0 .7.7 0 0 1 .5 0 1 1 0 0 1 .4.4 1.6 1.6 0 0 1 0 .6 1.7 1.7 0 0 1 0 .6 2.3 2.3 0 0 1 0 .6 3 3 0 0 1-.5.6v.3l-.3.6-.2-.3a2.8 2.8 0 0 1-.6.4 2.4 2.4 0 0 1-.7.2v-1.3a1.8 1.8 0 0 0 .4 0 2.4 2.4 0 0 0 .5-.3l-.4-.6a3.8 3.8 0 0 1-.5.3 1.3 1.3 0 0 1-.5.2.8.8 0 0 1-.4 0 1.2 1.2 0 0 1-.4-.5 1.5 1.5 0 0 1-.2-.6 1.8 1.8 0 0 1 0-.5 2.3 2.3 0 0 1 .3-.6 3.3 3.3 0 0 1 .3-.7l-.3-.5.5-.5zm2 3.2a.8.8 0 0 0 0-.3.4.4 0 0 0 0-.3.7.7 0 0 0-.4 0zm-2-2v.8a.7.7 0 0 0 .5 0z"/>
          <circle class="cls-16" cx="199" cy="41.8" r="25"/>
          <circle class="cls-17" cx="199" cy="41.8" r="18.4"/>
          <path class="cls-18" d="M197.8 51.3a17.4 17.4 0 0 1-4-1 14.5 14.5 0 0 1-3.7-1.8l2.6-3.8a15.2 15.2 0 0 0 2.7 1.5 11 11 0 0 0 2.6.8v-3.4a21.6 21.6 0 0 1-3-1 7.8 7.8 0 0 1-2.2-1 4.8 4.8 0 0 1-1.4-1.8 5.6 5.6 0 0 1-.4-2.3 5.7 5.7 0 0 1 .5-2.4 5.2 5.2 0 0 1 1.3-1.8 6.7 6.7 0 0 1 2-1.2 10.2 10.2 0 0 1 3-.6v-1.6h3v1.7a13 13 0 0 1 6 2.2l-2.3 3.8a10.6 10.6 0 0 0-2-1 11.7 11.7 0 0 0-2-.7V39a19.2 19.2 0 0 1 3 1 8 8 0 0 1 2.2 1.3A4.7 4.7 0 0 1 207 43a6 6 0 0 1 .4 2.3 5.3 5.3 0 0 1-1.8 4.2 6.7 6.7 0 0 1-2 1.3 11 11 0 0 1-3 .6V54h-3zm0-15.8a2.6 2.6 0 0 0-1.4.5 1.2 1.2 0 0 0-.4 1 1.2 1.2 0 0 0 .4 1 4 4 0 0 0 1.5.6zm2.8 11.7c1.3 0 2-.6 2-1.4a1.2 1.2 0 0 0-.5-1 4 4 0 0 0-1.4-.7z"/>
          <circle class="cls-16" cx="238.9" cy="61.6" r="9.6"/>
          <circle class="cls-17" cx="238.9" cy="61.6" r="7.1"/>
          <path class="cls-18" d="M238.4 65.3a6.8 6.8 0 0 1-1.6-.4 5.7 5.7 0 0 1-1.4-.8l1-1.5a5.8 5.8 0 0 0 1 .6 4.3 4.3 0 0 0 1 .3v-1.3a8.3 8.3 0 0 1-1-.4 3 3 0 0 1-1-.5 1.8 1.8 0 0 1-.4-.7 2 2 0 0 1-.2-1 2.2 2.2 0 0 1 .2-.8 2 2 0 0 1 .5-.7 2.5 2.5 0 0 1 .8-.5 3.8 3.8 0 0 1 1-.2V57h1.3v.7a5 5 0 0 1 2.3.8l-1 1.5a4 4 0 0 0-.7-.4 4.4 4.4 0 0 0-.8-.3v1.3a7.5 7.5 0 0 1 1.2.4 3 3 0 0 1 .8.4 1.8 1.8 0 0 1 .5.7 2.2 2.2 0 0 1 0 1 2 2 0 0 1 0 1 2 2 0 0 1-.6.6 2.6 2.6 0 0 1-.8.5 4.2 4.2 0 0 1-1 .3v1h-1.2zm0-6a1 1 0 0 0-.5 0 .5.5 0 0 0-.3.5.5.5 0 0 0 .2.3 1.6 1.6 0 0 0 .5.4zm1 4.4c.5 0 .8-.3.8-.6a.5.5 0 0 0-.2-.2 1.5 1.5 0 0 0-.5-.3z"/>
          <path class="cls-21" d="M292.6 141l-2.7 11h25.4l-2.7-11z"/>
          <path class="cls-22" d="M317 152h-28.7a1.4 1.4 0 0 0-1.3 1.5v.5h31.3v-.5a1.4 1.4 0 0 0-1.3-1.6z"/>
          <path class="cls-23" d="M259.6 136.6v6.2a2 2 0 0 0 2 2h82a2 2 0 0 0 2-2v-6.2z"/>
          <path class="cls-24" d="M345.7 136.6v-52a2 2 0 0 0-2-2.3h-82a2 2 0 0 0-2 2v52.3z"/>
          <path class="cls-8" d="M263 85.7h79.2V133h-79z"/>
          <path class="cls-25" d="M263 85h79.2v9.3h-79z"/>
          <circle class="cls-26" cx="266.6" cy="89.7" r="1.4"/>
          <circle class="cls-27" cx="270.5" cy="89.7" r="1.4"/>
          <circle class="cls-28" cx="274.4" cy="89.7" r="1.4"/>
          <path class="cls-8" d="M278.6 88.2h58.8v3h-58.8z"/>
          <path class="cls-25" d="M268.2 100h5.2v2h-5.2zM274.2 100h9.2v2h-9.2zM317.7 100h11v2h-11zM329.5 100h3.5v2h-3.5zM268.2 105h2.4v2h-2.4zM271.4 105h12v2h-12zM317.7 105h5.2v2h-5.3zM323.8 105h9.2v2h-9.2z"/>
          <path class="cls-29" d="M272 108.3h5.4v5H272zM323 109h5.4v5H323z"/>
          <path class="cls-27" d="M325.6 113.4a.7.7 0 0 1-.4-.2l-1.5-1.3a.5.5 0 1 1 .7-.8l1.2 1 1.3-2.5a.5.5 0 0 1 .8.5L326 113a.7.7 0 0 1-.4.4zM274.7 113a.7.7 0 0 1-.5 0l-1.5-1.4a.5.5 0 0 1 0-.7.5.5 0 0 1 .7 0l1.2 1 1.3-2.6a.5.5 0 1 1 .8.5l-1.5 2.7a.7.7 0 0 1-.5.3z"/>
          <path class="cls-30" d="M288.4 100H311v5h-22.6zM288.4 106.4h5.5v5h-5.6zM296.8 106.4h5.5v5h-5.5zM305.3 106.4h5.5v5h-5.5zM288.4 113H311v5h-22.6z"/>
          <path class="cls-31" d="M288.4 119.5H311v5.8h-22.6z"/>
          <path class="cls-8" d="M294.7 121.7h3.4v1.3h-3.3zM298.7 121.7h6v1.3h-6z"/>
          <path class="cls-14" d="M108.5 56.4A7.5 7.5 0 0 0 101 49a7.5 7.5 0 0 0 7.5-7.6A7.5 7.5 0 0 0 116 49a7.5 7.5 0 0 0-7.5 7.4z"/>
          <path class="cls-15" d="M101 57.2a4.5 4.5 0 0 0-4.5-4.6A4.5 4.5 0 0 0 101 48a4.5 4.5 0 0 0 4.5 4.6 4.5 4.5 0 0 0-4.5 4.6z"/>
          <rect class="cls-32" x="82.4" y="83" width="52" height="70" rx="2.6" ry="2.6"/>
          <path class="cls-8" d="M108.2 85.6a.8.8 0 0 1-.8.8.8.8 0 1 1 0-1.6.8.8 0 0 1 .8.8z"/>
          <path class="cls-33" d="M109.5 148.2a1.6 1.6 0 1 1-1.6-1.5 1.6 1.6 0 0 1 1.5 1.5z"/>
          <path class="cls-34" d="M108.7 148.2a.8.8 0 1 1-1.6 0 .8.8 0 0 1 1-.8.8.8 0 0 1 .7.8z"/>
          <path class="cls-29" d="M87 87.5h43.7v56H87z"/>
          <path class="cls-25" d="M87 87.5h43.7v8H87z"/>
          <circle class="cls-26" cx="90.2" cy="91.5" r="1.3"/>
          <circle class="cls-27" cx="93.6" cy="91.5" r="1.3"/>
          <circle class="cls-28" cx="97" cy="91.5" r="1.3"/>
          <path class="cls-8" d="M100.7 90.2H124v2.5h-23.3z"/>
          <path class="cls-26" d="M107.4 98.2H127v4.5h-19.6zM107.4 104h5v4.4h-5z"/>
          <path class="cls-8" d="M95 121.2h4.8v4.5h-5zM95 126.8h4.8v4.5h-5z"/>
          <path class="cls-26" d="M114.8 104h4.8v4.4h-4.8zM122.2 104h4.8v4.4h-4.8zM107.4 109.6H127v4.5h-19.6zM107.4 115.5H127v4.5h-19.6zM107.4 121.2H127v4.5h-19.6zM107.4 127H127v4.4h-19.6z"/>
          <path class="cls-25" d="M90 99.6h4.4v1.8H90zM95.2 99.6h8v1.8h-8zM90 105.4h9.4v1.8H90zM100.2 105.4h3v1.8h-3zM90 111h2v1.8h-2zM92.7 111h10.5v1.8H92.7zM90 117h4.4v1.7H90zM95.2 117h8v1.7h-8z"/>
          <path class="cls-27" d="M96 129l1.2 1.3a.2.2 0 0 0 .2 0l1.3-2.5zM96 123.7L97 125a.2.2 0 0 0 .2 0l1.3-2.6z"/>
          <path class="cls-31" d="M97.6 135h22.6v5.8H97.6z"/>
          <path class="cls-8" d="M104 137.2h3.4v1.3H104zM108 137.2h6v1.3h-6z"/>
          <rect class="cls-35" x="187.4" y="115" width="35" height="65" rx="1.8" ry="1.8"/>
          <path class="cls-8" d="M190.4 120h29v52h-29z"/>
          <path class="cls-25" d="M190.3 120h28v5.2h-28zM194 132.8h9v9h-9z"/>
          <path class="cls-36" d="M194 132.8l9 9zM203 132.8l-9 9z"/>
          <path class="cls-25" d="M205.6 132.6h9v9h-9z"/>
          <path class="cls-36" d="M205.6 132.6l9 9zM214.6 132.6l-9 9z"/>
          <path class="cls-25" d="M194 145h9v9h-9z"/>
          <path class="cls-36" d="M194.6 144.8l9 9zM203.6 144.8l-9 9z"/>
          <path class="cls-25" d="M205.6 144.7h9v9h-9z"/>
          <path class="cls-36" d="M205.6 144.7l9 9zM214.6 144.7l-9 9z"/>
          <path class="cls-25" d="M194 157h9v9h-9z"/>
          <path class="cls-36" d="M194 157l9 9zM203 157l-9 9z"/>
          <path class="cls-25" d="M205.6 156.8h9v9h-9z"/>
          <path class="cls-36" d="M205.6 156.8l9 9zM214.6 156.8l-9 9z"/>
          <circle class="cls-26" cx="192.3" cy="122.6" r=".8"/>
          <circle class="cls-27" cx="194.5" cy="122.6" r=".8"/>
          <circle class="cls-28" cx="196.7" cy="122.6" r=".8"/>
          <path class="cls-8" d="M199 121.8h15v1.6h-15z"/>
          <path class="cls-11" d="M223.8 147.7c1.5-1.4 2.7-.2 4.2 1.2 1.4 1.4 2.6 2.6 1 4l-4.3 4.5a3.8 3.8 0 0 1-5.3 0 3.8 3.8 0 0 1 0-5.4z"/>
          <path class="cls-13" d="M220 157c1.5 1.6 3.5.5 4.7-.7l-4-4.2c-1.3 1.3-2.5 3.3-.8 5z"/>
          <path class="cls-11" d="M223 139c1.6-1.6 2.8-.4 4.2 1 1.5 1.5 2.7 2.7 1.2 4.2l-4.4 4.4a3.8 3.8 0 0 1-5.3 0 3.8 3.8 0 0 1 0-5.3z"/>
          <path class="cls-13" d="M219.2 148c1.6 1.7 3.6.7 4.8-.5l-4.2-4.2c-1.2 1-2.3 3-.6 4.8z"/>
          <path class="cls-11" d="M223.8 157.3c1.5-1.5 2.7-.3 4.2 1.2 1.4 1.4 2.6 2.6 1 4l-4.3 4.5a3.8 3.8 0 0 1-5.3 0 3.8 3.8 0 0 1 0-5.3z"/>
          <path class="cls-13" d="M220 166.5c1.5 1.6 3.5.6 4.7-.6l-4-4.3c-1.3 1.2-2.5 3-.8 4.8z"/>
          <g class="cls-37">
            <path class="cls-38" d="M124.3 221.2a3.6 3.6 0 0 1-1.4-.7 16.5 16.5 0 0 1-3.8-3.3 8 8 0 0 1-1.7-4.8 3.8 3.8 0 0 1 1.3-3.2 2.8 2.8 0 0 1 1.4-.5 6.5 6.5 0 0 1 .8 0 4 4 0 0 1 1 0 6.8 6.8 0 0 1 2.5 1.6h.3a7 7 0 0 1 2.5-1.4 4 4 0 0 1 1-.2 6.7 6.7 0 0 1 1 0 2.8 2.8 0 0 1 1.3.7 3.8 3.8 0 0 1 1 3.2 8.2 8.2 0 0 1-2 4.7 17 17 0 0 1-3.8 3.2 3.7 3.7 0 0 1-1.5.6zM271.6 155.6l5.6 5.6v7.5h-3.7V163h-3.8v5.7H266v-7.5l5.6-5.6z"/>
            <path class="cls-38" d="M279 162a.8.8 0 0 1-.5-.2l-7-7-6.8 7a.8.8 0 0 1-1.2-1.2l7.5-7.4a.8.8 0 0 1 1.2 0l7.5 7.5a.8.8 0 0 1 0 1 .8.8 0 0 1-.6.4zM136 17.5a8 8 0 0 0-6 13.6l-5 5a1 1 0 0 0 0 1.3 1 1 0 0 0 1.4 0l5-5a8 8 0 1 0 4.5-14.8zm0 1.4a6.7 6.7 0 1 1-6.8 6.6A6.7 6.7 0 0 1 136 19zM300.3 65.5V76a2 2 0 0 0 2 2H319a2 2 0 0 0 2-2V65.4a2 2 0 0 0-2-2h-16.7a2 2 0 0 0-2 2zm1.3 10.4V65.5L308 71l-6.4 5zm18.2 0l-6.5-5 6.5-5.4V76zm-17-11.2h16l-7.4 6.2a1 1 0 0 1-1.3 0zm15.8 11.8h-15.8L309 72h.2a2.3 2.3 0 0 0 3 0zM78.2 64.7a2 2 0 0 0 4 0 .6.6 0 0 0 0-.4v-.6a2 2 0 0 0-2-1.6.8.8 0 0 1 .5 0 2 2 0 0 0-.6 0 2.2 2.2 0 0 0-.3 0 .8.8 0 0 1 .3 0 2 2 0 0 0-.8.2 1 1 0 0 1 .3 0 2 2 0 0 0-1.3 1.6c-.2 0-.3.2-.3.5s0 .4.2.4zM86.2 69.2a.8.8 0 0 0-1 0l-1 1-.6-1.4-.3-.8a.8.8 0 0 0-.4-.4 2 2 0 0 0-1-.3h-.6a3.3 3.3 0 0 1 0 .6 3 3 0 0 1-.5 1.8l-.4-1.5V68l.3-.7h-1.5l.2.8v.2l-.2 1.6a3 3 0 0 1-.6-2 4.3 4.3 0 0 1 0-.5h-.6a2 2 0 0 0-1 .3.8.8 0 0 0-.4.4l-.3.8-2 5a.8.8 0 0 0 .7 1 1 1 0 0 0 1-.5l1.3-3v11a1 1 0 1 0 2.2 0V75h.4v7.4a1 1 0 1 0 2 0V71l.6 1a1.3 1.3 0 0 0 .2.5.7.7 0 0 0 1 0l.6-.6 1.5-1.8a.8.8 0 0 0 0-1zM64.7 125a2.6 2.6 0 0 0 .6-1.5 3 3 0 0 0-3-2.8 3 3 0 0 0-2 1 6.3 6.3 0 0 0-11.8.4 4.5 4.5 0 0 0-.8 0 4.7 4.7 0 0 0-5 5.3 3.3 3.3 0 0 0-2.4 3 3.2 3.2 0 0 0 1.5 2.6h25.5a4.4 4.4 0 0 0 1.6-3.4 4.7 4.7 0 0 0-4.3-4.5zM97.2 184.6a5 5 0 0 0 0-8.2 9.4 9.4 0 0 0-10.8 0 5 5 0 0 0-2.3 4 5 5 0 0 0 2.2 4v.5a3 3 0 0 1-.7 2 2.6 2.6 0 0 1-1.7.8 1.8 1.8 0 0 0 1.5 1 3.6 3.6 0 0 0 2.4-1 3 3 0 0 0 1-2 9.4 9.4 0 0 0 3 .5 8.7 8.7 0 0 0 5.5-1.7z"/>
            <path class="cls-38" d="M101 190.6a2 2 0 0 1-.6-1.4v-.3a3.4 3.4 0 0 0 0-5.7 4.8 4.8 0 0 0-1.3-.6 6.3 6.3 0 0 1-1.7 2 8 8 0 0 1-2.5 1.3 9.7 9.7 0 0 1-3 .5h-.5a3.5 3.5 0 0 0 1.5 2.5 6 6 0 0 0 3.8 1.2 6.6 6.6 0 0 0 2-.3 2 2 0 0 0 .7 1.3 2.5 2.5 0 0 0 1.7.6 1.2 1.2 0 0 0 1-.8 1.8 1.8 0 0 1-1-.6zM104.8 183a3 3 0 0 1-.7-2v-.4a5 5 0 0 0 2.2-4 5 5 0 0 0-2.2-4 9.4 9.4 0 0 0-10.8 0 6 6 0 0 0-1.8 2h.4a10 10 0 0 1 3 .3 8 8 0 0 1 2.5 1.2 6.2 6.2 0 0 1 1.7 2 4.8 4.8 0 0 1 .6 2.3 5 5 0 0 1-.4 2 9.7 9.7 0 0 0 2.3-.5 3 3 0 0 0 1 2 3.7 3.7 0 0 0 2.5 1 1.8 1.8 0 0 0 1.5-1 2.7 2.7 0 0 1-1.7-1z"/>
            <path class="cls-39" d="M288 27a11 11 0 0 0-1 .3V48h1z"/>
            <path class="cls-40" d="M288.3 31v.6a16.8 16.8 0 0 1 12.3-.6v-.6a16.8 16.8 0 0 0-12.4.6z"/>
            <path class="cls-40" d="M288.3 32.4v.5a16.8 16.8 0 0 1 12.3-.6V32a16.8 16.8 0 0 0-12.4.4z"/>
            <path class="cls-40" d="M288.3 33.8v.6a16.8 16.8 0 0 1 12.3-.5v-.7a16.8 16.8 0 0 0-12.4.5z"/>
            <path class="cls-40" d="M288.3 35.2v.6a16.8 16.8 0 0 1 12.3-.5v-.6a16.8 16.8 0 0 0-12.4.5z"/>
            <path class="cls-40" d="M288.3 36.6v.6a16.8 16.8 0 0 1 12.3-.5v-.5a16.8 16.8 0 0 0-12.4.4z"/>
            <path class="cls-40" d="M288.3 38v.6a16.8 16.8 0 0 1 12.3-.5v-.4a16.8 16.8 0 0 0-12.4.5z"/>
            <path class="cls-40" d="M288.3 39.5v.5a16.8 16.8 0 0 1 12.3-.5V39a16.8 16.8 0 0 0-12.4.5z"/>
            <path class="cls-40" d="M288.3 41v.5a16.8 16.8 0 0 1 12.3-.5v-.6a16.8 16.8 0 0 0-12.4.5z"/>
            <path class="cls-40" d="M288.3 42.3v.6a16.8 16.8 0 0 1 12.3-.6v-.6a16.8 16.8 0 0 0-12.4.5z"/>
            <path class="cls-40" d="M288.3 43.7v.6a16.8 16.8 0 0 1 12.3-.5v-.6a16.8 16.8 0 0 0-12.4.5z"/>
            <path class="cls-40" d="M288.3 45.2v.5a16.8 16.8 0 0 1 12.3-.5v-.5a16.8 16.8 0 0 0-12.4.5z"/>
            <path class="cls-40" d="M288.3 46.6v.5a16.8 16.8 0 0 1 12.3-.4V46a16.8 16.8 0 0 0-12.4.6zM294 27.6A16 16 0 0 0 288 29v1a16 16 0 0 1 5.7-1.4zM285.7 31v.6a16.8 16.8 0 0 0-12.3-.6v-.6a16.8 16.8 0 0 1 12.3.6z"/>
            <path class="cls-40" d="M285.7 32.4v.5a16.8 16.8 0 0 0-12.3-.6V32a16.8 16.8 0 0 1 12.3.4z"/>
            <path class="cls-40" d="M285.7 33.8v.6a16.8 16.8 0 0 0-12.3-.5v-.7a16.8 16.8 0 0 1 12.3.5z"/>
            <path class="cls-40" d="M285.7 35.2v.6a16.8 16.8 0 0 0-12.3-.5v-.6a16.8 16.8 0 0 1 12.3.5z"/>
            <path class="cls-40" d="M285.7 36.6v.6a16.8 16.8 0 0 0-12.3-.5v-.5a16.8 16.8 0 0 1 12.3.4z"/>
            <path class="cls-40" d="M285.7 38v.6a16.8 16.8 0 0 0-12.3-.5v-.4a16.8 16.8 0 0 1 12.3.5z"/>
            <path class="cls-40" d="M285.7 39.5v.5a16.8 16.8 0 0 0-12.3-.5V39a16.8 16.8 0 0 1 12.3.5z"/>
            <path class="cls-40" d="M285.7 41v.5a16.8 16.8 0 0 0-12.3-.5v-.6a16.8 16.8 0 0 1 12.3.5z"/>
            <path class="cls-40" d="M285.7 42.3v.6a16.8 16.8 0 0 0-12.3-.6v-.6a16.8 16.8 0 0 1 12.3.5z"/>
            <path class="cls-40" d="M285.7 43.7v.6a16.8 16.8 0 0 0-12.3-.5v-.6a16.8 16.8 0 0 1 12.3.5z"/>
            <path class="cls-40" d="M285.7 45.2v.5a16.8 16.8 0 0 0-12.3-.5v-.5a16.8 16.8 0 0 1 12.3.5z"/>
            <path class="cls-40" d="M285.7 46.6v.5a16.8 16.8 0 0 0-12.3-.4V46a16.8 16.8 0 0 1 12.3.6zM280 27.6a16 16 0 0 1 5.7 1.4v1a16 16 0 0 0-5.6-1.4z"/>
            <g id="idea">
              <path class="cls-38" d="M210.3 84a.3.3 0 0 1-.4-.4 3.6 3.6 0 0 0-3.7-3.6.3.3 0 1 1 0-.6 4.3 4.3 0 0 1 4.3 4.2.3.3 0 0 1-.3.3zM207.5 92h-.4l1-6 .5.2-1 5.8zM205 92l-1-5.8h.6l1 5.7h-.5z"/>
              <path class="cls-38" d="M208.2 87c-.2 0-.3-.3-.3-.4l-.2-.2v.2s-.3.3-.5.3-.3-.3-.4-.4l-.2-.2v.2s-.2.3-.4.3-.3-.3-.4-.4v-.2l-.2.2s0 .3-.3.3-.3-.3-.4-.4v-.2.2s-.3.3-.5.3v-.3-.2s.3-.4.5-.4.3.3.3.5 0 .2.2.2 0-.2 0-.2.2-.4.4-.4.2.3.3.5v.2l.2-.2s0-.4.3-.4.3.3.4.5v.2l.2-.2s.2-.4.4-.4.3.3.3.5.2.2.2.2v.2zM206.3 76.5a.3.3 0 0 1-.3-.4v-3.3a.3.3 0 0 1 .6 0v3.4a.3.3 0 0 1-.3.5zM210.2 77.5a.3.3 0 0 1-.2 0 .3.3 0 0 1 0-.5l1.6-3a.3.3 0 1 1 .5.4l-1.6 3a.3.3 0 0 1-.2 0zM213 80.3a.3.3 0 0 1-.2-.6l3-1.7a.3.3 0 1 1 .3.6l-2.8 1.7a.3.3 0 0 1-.2 0zM217.5 84.2H214a.3.3 0 1 1 0-.7h3.5a.3.3 0 1 1 0 .7zM216 89.7a.3.3 0 0 1-.2 0l-3-1.7a.3.3 0 1 1 .4-.6l3 1.7a.3.3 0 0 1-.3.7zM202.4 77.5a.3.3 0 0 1-.2-.2l-1.7-3a.3.3 0 0 1 0-.3.3.3 0 0 1 .5 0l1.7 3a.3.3 0 0 1 0 .4.3.3 0 0 1-.3 0zM199.6 80.3l-3-1.7a.3.3 0 1 1 .3-.5l2.8 1.8a.3.3 0 0 1 0 .4.3.3 0 0 1-.2 0zM198.6 84.2h-3.4a.3.3 0 1 1 0-.7h3.4a.3.3 0 1 1 0 .7zM196.7 89.7a.3.3 0 0 1-.2-.6l3-1.6a.3.3 0 0 1 .3.6l-3 1.7z"/>
              <path class="cls-38" d="M209.2 92h-5.8a.5.5 0 0 1-.5-.4 3.8 3.8 0 0 0-.5-2.2 10.8 10.8 0 0 1-2.4-5.8 6.2 6.2 0 1 1 12.5 0 10.8 10.8 0 0 1-2.4 5.8 4 4 0 0 0-.3 2 .5.5 0 0 1-.5.7zm-5.8-1a.5.5 0 0 0-.5.5.5.5 0 0 1 .4-.5zm6 0zm-5.4 0h4.6v-.5a3.6 3.6 0 0 1 .6-1.8 9.7 9.7 0 0 0 2.2-5 5 5 0 0 0-10.2 0 9.7 9.7 0 0 0 2 5 3.6 3.6 0 0 1 .7 2v.3zM209 93.3h-5.3a.5.5 0 1 1 0-1h5.3a.5.5 0 1 1 0 1zM208.6 94.4H204a.5.5 0 1 1 0-1h4.5a.5.5 0 1 1 0 1zM208 95.5h-3.3a.5.5 0 1 1 0-1h3.2a.5.5 0 1 1 0 1z"/>
            </g>
            <path class="cls-38" d="M315.4 163.6c-2.3 0-4.2 5-4.2 11.4s2 11.5 4.2 11.5 4.2-5 4.2-11.5-2-11.4-4.2-11.4zm0 21c-2 0-3.5-4.3-3.5-9.6s1.4-9.6 3.4-9.6 3.5 4.3 3.5 9.6-1.6 9.6-3.6 9.6z"/>
            <path class="cls-38" d="M327 175c0-2.3-5.3-4.2-11.6-4.2s-11.5 2-11.5 4.2 5 4.2 11.4 4.2 11.5-1.8 11.5-4.2zm-21.2 0c0-2 4.3-3.5 9.6-3.5s9.6 1.5 9.6 3.5-4.3 3.5-9.6 3.5-9.6-1.5-9.6-3.5z"/>
            <path class="cls-38" d="M323.5 167c-1.6-1.7-6.6.6-11 5s-6.8 9.5-5.2 11 6.6-.5 11-5 7-9.4 5.2-11zm-15 14.8c-1.3-1.4.7-5.5 4.4-9.3s7.8-5.6 9.2-4.3-.5 5.6-4.3 9.3-8 5.7-9.4 4.3z"/>
            <path class="cls-38" d="M323.5 183c1.7-1.5-.6-6.5-5-11s-9.6-6.7-11.2-5 .6 6.5 5 11 9.6 6.8 11.2 5zm-15-14.8c1.5-1.3 5.7.6 9.4 4.3s5.6 8 4.2 9.3-5.5-.5-9.3-4.3-5.8-8-4.4-9.3z"/>
            <circle class="cls-38" cx="315.4" cy="175" r="1.8"/>
            <path class="cls-38" d="M288.5 204.4v-8l-4.6 4.2-.5-.4v4.2h5zM294.3 204.4v-6.8l-3.6-3.7-1.4 1.2v9.2h5zM300 204.4v-8.8l-4 3.7-.8-.8v6h5zM306 204.4v-14l-5 4.4v9.6h5z"/>
            <path class="cls-38" d="M306 185.8l-10 8.4-4.4-4.4a1 1 0 0 0-.8-.3 1 1 0 0 0-.8.3l-6.5 6.2v2.2l.4.4 6.8-6.7 4.5 4.3a1 1 0 0 0 1.5 0l9.2-8V186zM259.4 24.6l.2-2.2h-5l.2 2.2h4.6zM260.4 21.8h4.5l.8-3.8h-5.2l-.2 3.8zM249.5 22.4l.5 2.2h4v-2.2h-4.5zM264.7 22.4h-4.4l-.2 2.2h4l.7-2.2zM268.3 11.4a1 1 0 0 0-.6.2 1 1 0 0 0-.2.2l-3 3a.8.8 0 0 0 0 .2h-3.6l-.3 2.3h5.3l.4-1.5 2.3-2.2h1.8a1 1 0 0 0 0-2.2zM254.2 17.3h5.8l.2-2.3H254l.2 2.3zM253.8 21.8l-.3-3.8h-5.2l1 3.8h4.5zM247.5 15l.7 2.3h5.3l-.2-2.3h-5.8zM260 18H254l.3 3.8h5l.4-3.8zM252.2 25.3a2 2 0 1 1-2 1.8 2 2 0 0 1 2-1.7M262 25.3a2 2 0 1 1-2 1.8 2 2 0 0 1 2-1.7M158.2 188.8c-2.6-.2-4.8-1.2-4.8-4.5v-1h4v.5c0 1.3.3 2.2 1.7 2.2a1.8 1.8 0 0 0 2-2c0-3.7-7.6-1.6-7.6-8 0-2.7 1.3-4.8 4.8-5v-2h2v2c3.4 0 4.7 2 4.7 4.5v.5h-4.2a3.5 3.5 0 0 0-.3-1.8 1.3 1.3 0 0 0-1.3-.5 1.5 1.5 0 0 0-1.6 1.7c0 3.7 7.6 1.8 7.6 8 0 3.5-2 5-5 5.4v2.2h-2z"/>
          </g>
          <circle class="cls-41" cx="182" cy="92.4" r="14"/>
          <path class="cls-8" d="M185 86.4a.5.5 0 0 0-.6-.5h-11a.5.5 0 0 0-.4.4v1h12zM187.5 93a1 1 0 0 0-.5 0 1.5 1.5 0 0 1 0 2 1 1 0 1 0 .5-2zM186.2 93a1 1 0 0 0-.5 0 1 1 0 1 0 .5 2 1.5 1.5 0 0 1 0-2z"/>
          <path class="cls-8" d="M190.3 94.3v-2.5a.5.5 0 0 0-.5-.5h-11a.5.5 0 0 0-.4.6v6.3a.5.5 0 0 0 .5.5h10.8a.5.5 0 0 0 .5-.5zm-10.5 1h3.6v.7h-3.6zm9 2.3h-9v-.8h9zm-1.3-2a1.6 1.6 0 0 0-1.7 0 2.6 2.6 0 1 1 1.7 0z"/>
          <path class="cls-8" d="M177.8 90.3h7v-1.4H173v4a.5.5 0 0 0 .5.4h3.7v-2.6a.6.6 0 0 1 .6-.5z"/>
          <circle class="cls-18" cx="248.1" cy="155.7" r="11.5"/>
          <path class="cls-8" d="M246.4 151h-.2v.5h3.2v-.4zM246.2 150h3.4l.8-1.5c0-.2-1.3.4-1.5.4l-1-1.3-.7 1.2-1.7-1c-.2 0-.6.3-.4.5zM253.4 160.2a18.2 18.2 0 0 0-.2-3.2c-.3-2-1.8-4.6-4.3-4.6h-2c-2.6 0-5.2 4-5 7.2v1a2 2 0 0 0 .2.5 4.5 4.5 0 0 0 3.3 2.3 10 10 0 0 0 4.5 0c2-.4 3.2-1.4 3.4-2.6a1.8 1.8 0 0 0 0-.3 1.7 1.7 0 0 0 0-.2zm-5.2.6v.6h-.6v-.6c-.8 0-1.5-.4-1.5-1.5v-.3h1.4v.2c0 .4 0 .7.5.7a.6.6 0 0 0 .5-.7c0-1.2-2.4-.6-2.4-2.6a1.5 1.5 0 0 1 1.6-1.6v-.5h.6v.6c1 .2 1.5.8 1.5 1.6h-1.2a1 1 0 0 0-.2-.4.4.4 0 0 0-.4-.2.5.5 0 0 0-.6.6c0 1 2.4.5 2.4 2.4a1.5 1.5 0 0 1-1.6 1.8z"/>
          <circle class="cls-8" cx="241.4" cy="114.5" r="12.3"/>
          <path class="cls-42" d="M234 112.2h.4l1 5.4L249 116l.3.4L235 118l-1-5.8z"/>
          <path class="cls-42" d="M233 113.5h.5l1 5.4 14-1.8.2.4-14.7 1.8-1-6z"/>
          <path class="cls-42" d="M247.3 109.5l-12.2 1.2 1 6 13.7-1.7zm-5 5.6a2.2 2.2 0 1 1 2.4-2 2.3 2.3 0 0 1-2.4 2z"/>
          <path class="cls-42" d="M241.8 113.4c0 .3.2.5.5.4v-.8c-.5 0-1 0-1-.6a.7.7 0 0 1 .7-.8v-.2.2a.7.7 0 0 1 1 .6h-.4a.3.3 0 0 0-.4-.3v.6c.5 0 1 .2 1 .7a.7.7 0 0 1-.7.8v.4-.3a.8.8 0 0 1-1-.5zm.2-1.5c-.2 0-.3 0-.3.3s.3.3.4.3zm.5 1.8a.4.4 0 0 0 .3-.5c0-.2-.2-.3-.4-.3z"/>
          <circle class="cls-43" cx="164.4" cy="146.5" r="11.1"/>
          <path class="cls-8" d="M171.3 146a.3.3 0 0 0-.3.3 1.8 1.8 0 0 1-1 1c-.2-2.3-2.7-4.2-5.7-4.2a7 7 0 0 0-2.7.7l-1.4-1.3.2 2a4.5 4.5 0 0 0-1.8 2.4H157a.4.4 0 0 0-.3.4v2.2a.4.4 0 0 0 .4.3h2a4.6 4.6 0 0 0 .3.4 2.5 2.5 0 0 0 2-1 .3.3 0 0 1 .3 0 .3.3 0 0 1 0 .4 2.8 2.8 0 0 1-2 1.2 5.3 5.3 0 0 0 .8.6v1.6a.4.4 0 0 0 .4.3h1.2a.4.4 0 0 0 .4-.2v-.7a7.2 7.2 0 0 0 1.8.4 7 7 0 0 0 2.2-.4v.8a.4.4 0 0 0 .4.3h1.2a.4.4 0 0 0 .4-.2V151a4.2 4.2 0 0 0 1.6-3 2.3 2.3 0 0 0 1.4-1.6.3.3 0 0 0 0-.3zm-10.5.8a.7.7 0 1 1 .7-.7.7.7 0 0 1-.7.8zM166.2 142.4a2 2 0 1 0-3.7 0 7.2 7.2 0 0 1 3.7 0z"/>
          <circle class="cls-42" cx="153.4" cy="116.1" r="12.7"/>
          <path class="cls-8" d="M160 116v6.4h-13.4V116h8.3l.3-.8h-9.5v8h15v-8h-1l-.2.7h.4z"/>
          <path class="cls-8" d="M156 116a4 4 0 0 1 1.2.3 3 3 0 0 1 1 .6l2-5-2-1zM158.8 109.7l-.4.7 2.2 1 .3-.8a.5.5 0 0 0-.4-.6l-1.2-.5a.5.5 0 0 0-.7.2zM157 117a3.3 3.3 0 0 0-1.2-.4v1.5a2 2 0 0 1 1 .6l1-1.2a2.3 2.3 0 0 0-1-.5zM155.8 118.5c0 .4-.3 1.3 0 1.4s.5-1 .7-1.2a1.3 1.3 0 0 0-.7-.3zM157 112.3a.2.2 0 0 1-.2 0 .3.3 0 0 1-.2-.3l1.3-2.7a.3.3 0 0 1 .3.3l-1.2 2.6z"/>
          <path class="cls-8" d="M155.2 121.5a1 1 0 0 1-1-.8c0-.2 0-.2-.2 0-.2-.2-.5.3-.6.4a.2.2 0 0 1-.4 0c0-.2.4-1 1-1a.8.8 0 0 1 .7.5s.2.5.5.5a2.6 2.6 0 0 1 1-.7s1 0 1.3.7a3.7 3.7 0 0 0 1-2 .2.2 0 1 1 .5 0c-.3 1.2-1 2.4-1.6 2.4a.4.4 0 0 1-.3-.2c0-.3-.5-.4-.7-.4a2.3 2.3 0 0 0-.8.5h-.3zM147.8 117.3h6.4v.6h-6.4zM147.8 118.6h6.4v.6h-6.4z"/>
        </g>
      </g>
    </g>
  </g>
</svg>
