<svg id="Layer_1" xmlns="http://www.w3.org/2000/svg" viewBox="0 0 232.5 75.4">
  <style>
    .st0{enable-background:new ;}
  </style>
  <g class="st0">
    <path d="M4.1 8.8l-1.8-.4C1.4 8.1 1 7.7 1 6.9c0-.6.4-1 1.2-1h7.4c.8 0 1.2.5 1.2 1 0 .8-.3 1.2-1.3 1.5l-1.4.4v7.5H19V8.8l-1.6-.4c-1-.3-1.3-.7-1.3-1.5 0-.6.4-1 1.2-1h7.5c.8 0 1.2.4 1.2 1 0 .8-.3 1.2-1.2 1.5l-1.8.4v18.3l1.9.5c.9.3 1.1.6 1.1 1.2 0 .7-.5 1.2-1.4 1.2h-7.2c-.9 0-1.4-.5-1.4-1.2 0-.6.2-1 1.1-1.3l1.7-.5v-8H8.1v8l1.7.5c.9.3 1.1.6 1.1 1.3 0 .7-.5 1.2-1.4 1.2H2.4c-.9 0-1.4-.5-1.4-1.2 0-.6.2-1 1.1-1.2l1.9-.5V8.8z"/>
  </g>
  <g class="st0">
    <path d="M28.7 15.2l-.9-.3c-1-.3-1.3-.8-1.3-1.5 0-.6.4-1 1.2-1h6c.8 0 1.2.4 1.2 1 0 .7-.3 1.1-1.3 1.5l-1 .4 3.1 8.2 1.1 3.1h.2s.4-1.4 1.1-3.2l3.1-8.2-1-.4c-1-.4-1.3-.8-1.3-1.5 0-.6.4-1 1.3-1h5.2c.8 0 1.2.4 1.2 1 0 .7-.3 1.2-1.3 1.5l-.9.3-5.1 12.6c-.8 1.9-1.4 2.4-2.8 2.4s-2-.5-2.8-2.4l-5-12.5z"/>
  </g>
  <g class="st0">
    <path d="M58.3 19.1c0-3.1-1.1-4.2-3.7-4.2-2.9 0-4.1.9-4.8.9-.7 0-1.1-.5-1.1-1.2 0-.4.1-.6.4-.9.7-.8 3.4-1.8 6.6-1.8 4.6 0 6.5 1.9 6.5 6.1 0 2.9-.1 5.7.1 9.1l1.6.2c.8.1 1.1.5 1.1 1.2 0 .6-.4 1-1.1 1.3-.8.3-1.9.5-3.1.5-1.5 0-2.1-.7-2.1-2.1v-.3h-.1s-1.4 2.6-5.2 2.6c-3.5 0-5.7-2.3-5.7-5.1s2.4-4.8 7.6-4.8c1.8 0 3.1.3 3.1.3v-1.8zm-.1 4s-1-.3-2.7-.3c-2.7 0-3.9.8-3.9 2.2 0 1.4 1.1 2.5 2.9 2.5 2.4 0 3.6-1.7 3.6-1.7v-2.7zM88.6 7.2l-1.9-.3c-.8-.2-1.1-.5-1.1-1.2s.3-1 1.1-1.3c.9-.2 2.1-.4 3.4-.4 1.9 0 2.4.6 2.4 2.4v20.8l1.7.2c.8.1 1.1.5 1.1 1.2 0 .6-.4 1-1.1 1.3-.8.3-2 .5-3.1.5-1.5 0-2.1-.7-2.1-2.1v-.6h-.1s-1.4 2.9-5.5 2.9c-4.2 0-7-2.8-7-8.6 0-6.2 3.7-9.9 9.7-9.9 1.6 0 2.6.3 2.6.3l.1-.1c0-.6-.1-1.2-.1-2.1v-3zm0 8.3s-1.1-.7-3.2-.7c-3.1 0-5.1 1.9-5.1 6.6 0 4.3 1.8 6.1 4.3 6.1s3.9-2 3.9-2v-10z"/>
  </g>
  <g class="st0">
    <path d="M99.7 15.3l-1.9-.3c-.9-.2-1.1-.5-1.1-1.2s.3-1 1.2-1.3c.9-.2 2.2-.4 3.2-.4 1.6 0 2.2.5 2.2 2.1v1h.1c1-2.1 2.7-3.5 4.7-3.5 1.2 0 1.7.6 1.7 1.7 0 1.7-.9 2.6-1.6 2.6-.6 0-.9-.4-1.6-.4-1.1 0-2.1.5-3.1 1.8V27l2 .5c.9.2 1.1.5 1.1 1.2s-.5 1.2-1.4 1.2H98c-.9 0-1.4-.5-1.4-1.2 0-.6.2-.9 1.1-1.2l1.8-.5V15.3z"/>
  </g>
  <g class="st0">
    <path d="M115.1 32.3c-.4.6-.8.9-1.3.9-.7 0-1.4-.5-1.4-1.3 0-.4.1-.7.4-1.1l1.3-2.2c-1.9-1.7-2.8-4-2.8-7.1 0-5.9 3.8-9.7 9.3-9.7 1.3 0 2.5.2 3.2.5l1.4-2.3c.4-.6.8-.9 1.4-.9.7 0 1.4.5 1.4 1.3 0 .3-.1.7-.4 1.1l-1.3 2.2c1.9 1.6 2.8 3.9 2.8 7 0 5.9-3.8 9.7-9.3 9.7-1.3 0-2.5-.2-3.2-.5l-1.5 2.4zm7-17.1c-.5-.3-1.2-.4-2.1-.4-2.8 0-4.8 2.1-4.8 6.4 0 1.8.4 3.2.9 4.1l6-10.1zm-4 12c.6.3 1.2.4 2.1.4 2.8 0 4.8-2.1 4.8-6.4 0-1.9-.4-3.2-.9-4.2l-6 10.2zm16.3-11.9l-1.9-.3c-.9-.2-1.1-.5-1.1-1.2s.3-1 1.2-1.3c.9-.2 2.2-.4 3.2-.4 1.6 0 2.2.5 2.2 2.1v.6h.1s1.4-2.9 5.4-2.9c2.7 0 4.6 1.1 5.6 3.1 0 0 1.6-3.1 5.8-3.1 4 0 6.3 2.3 6.3 6.8v8.4l1.6.5c.9.3 1.1.6 1.1 1.2 0 .7-.5 1.2-1.4 1.2h-6.3c-.9 0-1.4-.5-1.4-1.2 0-.6.2-1 1.1-1.3l1.4-.4v-7.4c0-3.5-1.4-4.9-3.7-4.9-2.5 0-3.9 2.2-3.9 2.2s.1.5.1 1.7v8.4l1.4.4c.8.3 1.1.6 1.1 1.3 0 .7-.5 1.2-1.4 1.2h-6.2c-.9 0-1.4-.5-1.4-1.2 0-.6.2-1 1.1-1.3l1.4-.4v-7.4c0-3.5-1.4-4.9-3.8-4.9s-3.7 2-3.7 2v10.3l1.4.4c.9.3 1.1.6 1.1 1.3 0 .7-.5 1.2-1.4 1.2h-6.6c-.9 0-1.4-.5-1.4-1.2 0-.6.2-.9 1.1-1.2l1.8-.5V15.3zm33.9 0l-1.9-.3c-.9-.2-1.1-.5-1.1-1.2s.3-1 1.2-1.3c.9-.2 2.2-.4 3.2-.4 1.6 0 2.2.5 2.2 2.1v.6h.1s1.4-2.9 5.4-2.9c2.7 0 4.6 1.1 5.6 3.1 0 0 1.6-3.1 5.8-3.1 4 0 6.3 2.3 6.3 6.8v8.4l1.6.5c.9.3 1.1.6 1.1 1.2 0 .7-.5 1.2-1.4 1.2H190c-.9 0-1.4-.5-1.4-1.2 0-.6.2-1 1.1-1.3l1.4-.4v-7.4c0-3.5-1.4-4.9-3.7-4.9-2.5 0-3.9 2.2-3.9 2.2s.1.5.1 1.7v8.4l1.4.4c.8.3 1.1.6 1.1 1.3 0 .7-.5 1.2-1.4 1.2h-6.2c-.9 0-1.4-.5-1.4-1.2 0-.6.2-1 1.1-1.3l1.4-.4v-7.4c0-3.5-1.4-4.9-3.8-4.9s-3.7 2-3.7 2v10.3l1.4.4c.9.3 1.1.6 1.1 1.3 0 .7-.5 1.2-1.4 1.2h-6.6c-.9 0-1.4-.5-1.4-1.2 0-.6.2-.9 1.1-1.2l1.8-.5V15.3zm35.6 6.4c.2 3.8 2.2 5.9 5.7 5.9 2.4 0 3.2-.7 4-.7.6 0 1 .4 1 1 0 .4-.1.7-.4 1-.7.7-2.7 1.5-5.7 1.5-5.4 0-8.6-3.2-8.6-8.9 0-6 3.6-9.7 8.6-9.7 4.2 0 6.8 2.6 6.8 7.3 0 1.6-.8 2.4-2.2 2.4h-9.2zm7.6-2.4c-.1-3.2-1.5-4.6-3.5-4.6-2.2 0-3.7 1.8-4 4.6h7.5zm9.3-4l-1.9-.3c-.9-.2-1.1-.5-1.1-1.2s.3-1 1.2-1.3c.9-.2 2.2-.4 3.2-.4 1.6 0 2.2.5 2.2 2.1v1h.1c1-2.1 2.7-3.5 4.7-3.5 1.2 0 1.7.6 1.7 1.7 0 1.7-.9 2.6-1.6 2.6-.6 0-.9-.4-1.6-.4-1.1 0-2.1.5-3.1 1.8V27l2 .5c.9.2 1.1.5 1.1 1.2s-.5 1.2-1.4 1.2h-7.2c-.9 0-1.4-.5-1.4-1.2 0-.6.2-.9 1.1-1.2l1.8-.5V15.3z"/>
  </g>
  <g class="st0">
    <path d="M67.9 44.7l-1.3-.3c-1.1-.3-1.5-.8-1.5-1.8s.4-1.5 1.5-1.8c1-.3 2.6-.6 4.2-.6 2.2 0 3.1.8 3.1 3.1v18.8l1.1.3c1.1.3 1.4.7 1.4 1.7s-.4 1.5-1.5 1.9c-1 .4-2.5.6-3.8.6-1.9 0-2.7-.8-2.7-2.5v-.3h-.1s-1.2 3-5.5 3-7.1-2.8-7.1-8.6c.3-6.5 4-10.2 10.6-10.2 1 0 1.7.2 1.7.2l.1-.1c0-.4-.1-.9-.1-1.5v-1.9zm0 7.8s-.7-.4-2-.4c-2.4 0-3.8 1.5-3.8 5.4 0 3.5 1.3 4.8 3 4.8 1.8 0 2.7-1.4 2.7-1.4v-8.4zm11.7.1l-1.1-.3c-1.1-.3-1.5-.8-1.5-1.8s.4-1.5 1.4-1.9 2.6-.6 4.1-.6c2.2 0 3.1.9 3.1 3.1v7.5c0 2.7 1 3.6 2.7 3.6 1.8 0 2.7-1.4 2.7-1.4v-8.2l-1.2-.4c-1.1-.3-1.5-.7-1.5-1.7s.4-1.5 1.4-1.9 2.6-.6 4.2-.6c2.2 0 3.1.9 3.1 3.1v11l1.1.3c1.1.3 1.4.7 1.4 1.7s-.4 1.5-1.5 1.9c-1 .4-2.5.6-3.8.6-1.9 0-2.7-.8-2.7-2.5v-.3h-.1s-1.2 3-5.5 3-6.6-2.3-6.6-6.8v-7.4z"/>
  </g>
  <g class="st0">
    <path d="M119.6 48.2c5.2 0 8.4 3.2 8.4 8.8 0 5.9-3.7 9.7-9.3 9.7-5.2 0-8.4-3.2-8.4-8.8.1-5.8 3.9-9.7 9.3-9.7zm-.3 15.7c2.7 0 4.7-2 4.7-6.3s-2.1-6.5-4.8-6.5-4.7 2.1-4.7 6.4 2.1 6.4 4.8 6.4z"/>
  </g>
  <g class="st0">
    <path d="M133.4 51.5l-1.9-.3c-.9-.2-1.1-.5-1.1-1.2s.3-1 1.2-1.3c.9-.2 2.2-.4 3.2-.4 1.6 0 2.2.5 2.2 2.1v.6h.1s1.4-2.9 5.4-2.9c2.7 0 4.6 1.1 5.6 3.1 0 0 1.6-3.1 5.8-3.1 4 0 6.3 2.3 6.3 6.8v8.4l1.6.5c.9.3 1.1.6 1.1 1.2 0 .7-.5 1.2-1.4 1.2h-6.3c-.9 0-1.4-.5-1.4-1.2 0-.6.2-1 1.1-1.3l1.4-.4v-7.4c0-3.5-1.4-4.9-3.7-4.9-2.5 0-3.9 2.2-3.9 2.2s.1.5.1 1.7v8.4l1.4.4c.8.3 1.1.6 1.1 1.3 0 .7-.5 1.2-1.4 1.2h-6.2c-.9 0-1.4-.5-1.4-1.2 0-.6.2-1 1.1-1.3l1.4-.4v-7.4c0-3.5-1.4-4.9-3.8-4.9s-3.7 2-3.7 2v10.3l1.4.4c.9.3 1.1.6 1.1 1.3 0 .7-.5 1.2-1.4 1.2h-6.6c-.9 0-1.4-.5-1.4-1.2 0-.6.2-.9 1.1-1.2l1.8-.5V51.5z"/>
  </g>
  <g class="st0">
    <path d="M171.7 46.5c0-2.1-1.4-3.4-3.6-3.4-1.9 0-2.4.6-3.3.6-.7 0-1.1-.5-1.1-1.2 0-.3.1-.6.4-.9.7-.7 2.5-1.5 5-1.5 4.6 0 6.8 2.2 6.8 5.6 0 5.1-5.4 6.2-5.4 9.8 0 1.4.3 1.8.3 2.4 0 .8-.6 1.3-2 1.3-1.3 0-2.2-1-2.2-3.2-.1-4.5 5.1-5.7 5.1-9.5zM169 61.4c1.5 0 2.6 1.1 2.6 2.6s-1.1 2.7-2.6 2.7-2.6-1.1-2.6-2.6c-.1-1.5 1.1-2.7 2.6-2.7z"/>
  </g>
</svg>
